<?xml version="1.0" encoding="us-ascii" standalone="no"?><svg xmlns="http://www.w3.org/2000/svg" xmlns:xlink="http://www.w3.org/1999/xlink" contentStyleType="text/css" height="614px" preserveAspectRatio="none" style="width:1286px;height:614px;background:#FFFFFF;" version="1.1" viewBox="0 0 1286 614" width="1286px" zoomAndPan="magnify"><defs/><g><text fill="#000000" font-family="sans-serif" font-size="14" font-weight="bold" lengthAdjust="spacing" textLength="174" x="555.25" y="28.5352">&#1057;&#1086;&#1079;&#1076;&#1072;&#1085;&#1080;&#1077; &#1085;&#1086;&#1074;&#1086;&#1081; &#1079;&#1072;&#1076;&#1072;&#1095;&#1080;</text><line style="stroke:#181818;stroke-width:0.5;stroke-dasharray:5.0,5.0;" x1="23" x2="23" y1="118.9766" y2="533.0137"/><line style="stroke:#181818;stroke-width:0.5;stroke-dasharray:5.0,5.0;" x1="207" x2="207" y1="118.9766" y2="533.0137"/><line style="stroke:#181818;stroke-width:0.5;stroke-dasharray:5.0,5.0;" x1="344" x2="344" y1="118.9766" y2="533.0137"/><line style="stroke:#181818;stroke-width:0.5;stroke-dasharray:5.0,5.0;" x1="504.5" x2="504.5" y1="118.9766" y2="533.0137"/><line style="stroke:#181818;stroke-width:0.5;stroke-dasharray:5.0,5.0;" x1="646" x2="646" y1="118.9766" y2="533.0137"/><line style="stroke:#181818;stroke-width:0.5;stroke-dasharray:5.0,5.0;" x1="800" x2="800" y1="118.9766" y2="533.0137"/><line style="stroke:#181818;stroke-width:0.5;stroke-dasharray:5.0,5.0;" x1="1007.5" x2="1007.5" y1="118.9766" y2="533.0137"/><line style="stroke:#181818;stroke-width:0.5;stroke-dasharray:5.0,5.0;" x1="1223.5" x2="1223.5" y1="118.9766" y2="533.0137"/><text fill="#000000" font-family="sans-serif" font-size="14" lengthAdjust="spacing" textLength="31" x="5" y="116.0234">User</text><ellipse cx="23.5" cy="50.9883" fill="#E2E2F0" rx="8" ry="8" style="stroke:#181818;stroke-width:0.5;"/><path d="M23.5,58.9883 L23.5,85.9883 M10.5,66.9883 L36.5,66.9883 M23.5,85.9883 L10.5,100.9883 M23.5,85.9883 L36.5,100.9883 " fill="none" style="stroke:#181818;stroke-width:0.5;"/><text fill="#000000" font-family="sans-serif" font-size="14" lengthAdjust="spacing" textLength="31" x="5" y="545.5488">User</text><ellipse cx="23.5" cy="557.002" fill="#E2E2F0" rx="8" ry="8" style="stroke:#181818;stroke-width:0.5;"/><path d="M23.5,565.002 L23.5,592.002 M10.5,573.002 L36.5,573.002 M23.5,592.002 L10.5,607.002 M23.5,592.002 L36.5,607.002 " fill="none" style="stroke:#181818;stroke-width:0.5;"/><rect fill="#E2E2F0" height="30.4883" rx="2.5" ry="2.5" style="stroke:#181818;stroke-width:0.5;" width="87" x="164" y="87.4883"/><text fill="#000000" font-family="sans-serif" font-size="14" lengthAdjust="spacing" textLength="73" x="171" y="108.0234">Web Client</text><rect fill="#E2E2F0" height="30.4883" rx="2.5" ry="2.5" style="stroke:#181818;stroke-width:0.5;" width="87" x="164" y="532.0137"/><text fill="#000000" font-family="sans-serif" font-size="14" lengthAdjust="spacing" textLength="73" x="171" y="552.5488">Web Client</text><rect fill="#E2E2F0" height="30.4883" rx="2.5" ry="2.5" style="stroke:#181818;stroke-width:0.5;" width="97" x="296" y="87.4883"/><text fill="#000000" font-family="sans-serif" font-size="14" lengthAdjust="spacing" textLength="83" x="303" y="108.0234">API Gateway</text><rect fill="#E2E2F0" height="30.4883" rx="2.5" ry="2.5" style="stroke:#181818;stroke-width:0.5;" width="97" x="296" y="532.0137"/><text fill="#000000" font-family="sans-serif" font-size="14" lengthAdjust="spacing" textLength="83" x="303" y="552.5488">API Gateway</text><rect fill="#E2E2F0" height="30.4883" rx="2.5" ry="2.5" style="stroke:#181818;stroke-width:0.5;" width="98" x="455.5" y="87.4883"/><text fill="#000000" font-family="sans-serif" font-size="14" lengthAdjust="spacing" textLength="84" x="462.5" y="108.0234">Task Service</text><rect fill="#E2E2F0" height="30.4883" rx="2.5" ry="2.5" style="stroke:#181818;stroke-width:0.5;" width="98" x="455.5" y="532.0137"/><text fill="#000000" font-family="sans-serif" font-size="14" lengthAdjust="spacing" textLength="84" x="462.5" y="552.5488">Task Service</text><text fill="#000000" font-family="sans-serif" font-size="14" lengthAdjust="spacing" textLength="153" x="567" y="116.0234">Project/Task Database</text><path d="M628.5,66.4883 C628.5,56.4883 646.5,56.4883 646.5,56.4883 C646.5,56.4883 664.5,56.4883 664.5,66.4883 L664.5,92.4883 C664.5,102.4883 646.5,102.4883 646.5,102.4883 C646.5,102.4883 628.5,102.4883 628.5,92.4883 L628.5,66.4883 " fill="#E2E2F0" style="stroke:#181818;stroke-width:1.5;"/><path d="M628.5,66.4883 C628.5,76.4883 646.5,76.4883 646.5,76.4883 C646.5,76.4883 664.5,76.4883 664.5,66.4883 " fill="none" style="stroke:#181818;stroke-width:1.5;"/><text fill="#000000" font-family="sans-serif" font-size="14" lengthAdjust="spacing" textLength="153" x="567" y="545.5488">Project/Task Database</text><path d="M628.5,558.502 C628.5,548.502 646.5,548.502 646.5,548.502 C646.5,548.502 664.5,548.502 664.5,558.502 L664.5,584.502 C664.5,594.502 646.5,594.502 646.5,594.502 C646.5,594.502 628.5,594.502 628.5,584.502 L628.5,558.502 " fill="#E2E2F0" style="stroke:#181818;stroke-width:1.5;"/><path d="M628.5,558.502 C628.5,568.502 646.5,568.502 646.5,568.502 C646.5,568.502 664.5,568.502 664.5,558.502 " fill="none" style="stroke:#181818;stroke-width:1.5;"/><path d="M741,92.4883 L859,92.4883 C864,92.4883 864,105.7324 864,105.7324 C864,105.7324 864,118.9766 859,118.9766 L741,118.9766 C736,118.9766 736,105.7324 736,105.7324 C736,105.7324 736,92.4883 741,92.4883 " fill="#E2E2F0" style="stroke:#181818;stroke-width:0.5;"/><path d="M859,92.4883 C854,92.4883 854,105.7324 854,105.7324 C854,118.9766 859,118.9766 859,118.9766 " fill="none" style="stroke:#181818;stroke-width:0.5;"/><text fill="#000000" font-family="sans-serif" font-size="14" lengthAdjust="spacing" textLength="108" x="741" y="111.0234">Message Queue</text><path d="M741,532.0137 L859,532.0137 C864,532.0137 864,545.2578 864,545.2578 C864,545.2578 864,558.502 859,558.502 L741,558.502 C736,558.502 736,545.2578 736,545.2578 C736,545.2578 736,532.0137 741,532.0137 " fill="#E2E2F0" style="stroke:#181818;stroke-width:0.5;"/><path d="M859,532.0137 C854,532.0137 854,545.2578 854,545.2578 C854,558.502 859,558.502 859,558.502 " fill="none" style="stroke:#181818;stroke-width:0.5;"/><text fill="#000000" font-family="sans-serif" font-size="14" lengthAdjust="spacing" textLength="108" x="741" y="550.5488">Message Queue</text><rect fill="#E2E2F0" height="30.4883" rx="2.5" ry="2.5" style="stroke:#181818;stroke-width:0.5;" width="145" x="935.5" y="87.4883"/><text fill="#000000" font-family="sans-serif" font-size="14" lengthAdjust="spacing" textLength="131" x="942.5" y="108.0234">Notification Service</text><rect fill="#E2E2F0" height="30.4883" rx="2.5" ry="2.5" style="stroke:#181818;stroke-width:0.5;" width="145" x="935.5" y="532.0137"/><text fill="#000000" font-family="sans-serif" font-size="14" lengthAdjust="spacing" textLength="131" x="942.5" y="552.5488">Notification Service</text><rect fill="#E2E2F0" height="30.4883" rx="2.5" ry="2.5" style="stroke:#181818;stroke-width:0.5;" width="113" x="1167.5" y="87.4883"/><text fill="#000000" font-family="sans-serif" font-size="14" lengthAdjust="spacing" textLength="99" x="1174.5" y="108.0234">Project Service</text><rect fill="#E2E2F0" height="30.4883" rx="2.5" ry="2.5" style="stroke:#181818;stroke-width:0.5;" width="113" x="1167.5" y="532.0137"/><text fill="#000000" font-family="sans-serif" font-size="14" lengthAdjust="spacing" textLength="99" x="1174.5" y="552.5488">Project Service</text><polygon fill="#181818" points="195.5,146.2871,205.5,150.2871,195.5,154.2871,199.5,150.2871" style="stroke:#181818;stroke-width:1.0;"/><line style="stroke:#181818;stroke-width:1.0;" x1="23.5" x2="201.5" y1="150.2871" y2="150.2871"/><text fill="#000000" font-family="sans-serif" font-size="13" lengthAdjust="spacing" textLength="144" x="30.5" y="145.5449">&#1057;&#1086;&#1079;&#1076;&#1072;&#1090;&#1100; &#1085;&#1086;&#1074;&#1091;&#1102; &#1079;&#1072;&#1076;&#1072;&#1095;&#1091;</text><polygon fill="#181818" points="332.5,175.5977,342.5,179.5977,332.5,183.5977,336.5,179.5977" style="stroke:#181818;stroke-width:1.0;"/><line style="stroke:#181818;stroke-width:1.0;" x1="207.5" x2="338.5" y1="179.5977" y2="179.5977"/><text fill="#000000" font-family="sans-serif" font-size="13" lengthAdjust="spacing" textLength="103" x="214.5" y="174.8555">POST /api/tasks</text><polygon fill="#181818" points="492.5,204.9082,502.5,208.9082,492.5,212.9082,496.5,208.9082" style="stroke:#181818;stroke-width:1.0;"/><line style="stroke:#181818;stroke-width:1.0;" x1="344.5" x2="498.5" y1="208.9082" y2="208.9082"/><text fill="#000000" font-family="sans-serif" font-size="13" lengthAdjust="spacing" textLength="77" x="351.5" y="204.166">POST /tasks</text><polygon fill="#181818" points="634.5,234.2188,644.5,238.2188,634.5,242.2188,638.5,238.2188" style="stroke:#181818;stroke-width:1.0;"/><line style="stroke:#181818;stroke-width:1.0;" x1="504.5" x2="640.5" y1="238.2188" y2="238.2188"/><text fill="#000000" font-family="sans-serif" font-size="13" lengthAdjust="spacing" textLength="118" x="511.5" y="233.4766">INSERT INTO tasks</text><polygon fill="#181818" points="515.5,263.5293,505.5,267.5293,515.5,271.5293,511.5,267.5293" style="stroke:#181818;stroke-width:1.0;"/><line style="stroke:#181818;stroke-width:1.0;" x1="509.5" x2="645.5" y1="267.5293" y2="267.5293"/><text fill="#000000" font-family="sans-serif" font-size="13" lengthAdjust="spacing" textLength="96" x="521.5" y="262.7871">task_id created</text><polygon fill="#181818" points="788,292.8398,798,296.8398,788,300.8398,792,296.8398" style="stroke:#181818;stroke-width:1.0;"/><line style="stroke:#181818;stroke-width:1.0;" x1="504.5" x2="794" y1="296.8398" y2="296.8398"/><text fill="#000000" font-family="sans-serif" font-size="13" lengthAdjust="spacing" textLength="171" x="511.5" y="292.0977">Publish task_created_event</text><polygon fill="#181818" points="355.5,322.1504,345.5,326.1504,355.5,330.1504,351.5,326.1504" style="stroke:#181818;stroke-width:1.0;"/><line style="stroke:#181818;stroke-width:1.0;" x1="349.5" x2="503.5" y1="326.1504" y2="326.1504"/><text fill="#000000" font-family="sans-serif" font-size="13" lengthAdjust="spacing" textLength="136" x="361.5" y="321.4082">&#1047;&#1072;&#1076;&#1072;&#1095;&#1072; &#1089;&#1086;&#1079;&#1076;&#1072;&#1085;&#1072; (201)</text><polygon fill="#181818" points="218.5,351.4609,208.5,355.4609,218.5,359.4609,214.5,355.4609" style="stroke:#181818;stroke-width:1.0;"/><line style="stroke:#181818;stroke-width:1.0;" x1="212.5" x2="343.5" y1="355.4609" y2="355.4609"/><text fill="#000000" font-family="sans-serif" font-size="13" lengthAdjust="spacing" textLength="113" x="224.5" y="350.7188">HTTP 201 Created</text><polygon fill="#181818" points="34.5,380.7715,24.5,384.7715,34.5,388.7715,30.5,384.7715" style="stroke:#181818;stroke-width:1.0;"/><line style="stroke:#181818;stroke-width:1.0;" x1="28.5" x2="206.5" y1="384.7715" y2="384.7715"/><text fill="#000000" font-family="sans-serif" font-size="13" lengthAdjust="spacing" textLength="160" x="40.5" y="380.0293">&#1047;&#1072;&#1076;&#1072;&#1095;&#1072; &#1091;&#1089;&#1087;&#1077;&#1096;&#1085;&#1086; &#1089;&#1086;&#1079;&#1076;&#1072;&#1085;&#1072;</text><polygon fill="#181818" points="996,410.082,1006,414.082,996,418.082,1000,414.082" style="stroke:#181818;stroke-width:1.0;"/><line style="stroke:#181818;stroke-width:1.0;" x1="800" x2="1002" y1="414.082" y2="414.082"/><text fill="#000000" font-family="sans-serif" font-size="13" lengthAdjust="spacing" textLength="184" x="807" y="409.3398">Consume task_created_event</text><polygon fill="#181818" points="1212,439.3926,1222,443.3926,1212,447.3926,1216,443.3926" style="stroke:#181818;stroke-width:1.0;"/><line style="stroke:#181818;stroke-width:1.0;" x1="1008" x2="1218" y1="443.3926" y2="443.3926"/><text fill="#000000" font-family="sans-serif" font-size="13" lengthAdjust="spacing" textLength="192" x="1015" y="438.6504">&#1055;&#1086;&#1083;&#1091;&#1095;&#1080;&#1090;&#1100; &#1091;&#1095;&#1072;&#1089;&#1090;&#1085;&#1080;&#1082;&#1086;&#1074; &#1087;&#1088;&#1086;&#1077;&#1082;&#1090;&#1072;</text><polygon fill="#181818" points="1019,468.7031,1009,472.7031,1019,476.7031,1015,472.7031" style="stroke:#181818;stroke-width:1.0;"/><line style="stroke:#181818;stroke-width:1.0;" x1="1013" x2="1223" y1="472.7031" y2="472.7031"/><text fill="#000000" font-family="sans-serif" font-size="13" lengthAdjust="spacing" textLength="123" x="1025" y="467.9609">&#1057;&#1087;&#1080;&#1089;&#1086;&#1082; &#1091;&#1095;&#1072;&#1089;&#1090;&#1085;&#1080;&#1082;&#1086;&#1074;</text><line style="stroke:#181818;stroke-width:1.0;" x1="1008" x2="1050" y1="502.0137" y2="502.0137"/><line style="stroke:#181818;stroke-width:1.0;" x1="1050" x2="1050" y1="502.0137" y2="515.0137"/><line style="stroke:#181818;stroke-width:1.0;" x1="1009" x2="1050" y1="515.0137" y2="515.0137"/><polygon fill="#181818" points="1019,511.0137,1009,515.0137,1019,519.0137,1015,515.0137" style="stroke:#181818;stroke-width:1.0;"/><text fill="#000000" font-family="sans-serif" font-size="13" lengthAdjust="spacing" textLength="156" x="1015" y="497.2715">&#1054;&#1090;&#1087;&#1088;&#1072;&#1074;&#1080;&#1090;&#1100; &#1091;&#1074;&#1077;&#1076;&#1086;&#1084;&#1083;&#1077;&#1085;&#1080;&#1103;</text><!--SRC=[RLCzZzD04EttLunIGO42b2cGm8VWYlWSTb7AqyPPO274mRivHCTT2YWGLzA1-0SM8kB8GV8NPlyHCsiRnQShB8_dlJSVRzVU-fa1_8vR_8K_iSA_U85heDSMVz3p6oXVCH8-u8KGElT52RsdpfGzq0uu40jTUflRXPvxw8tD19APDNCV2UEa2z_F3k6HzkQjVXTn-kuIb7QlG9honEOcCfGKK-trH3i3lQmiNfhSzoFhe4b7MgOE7eWtIxCarj0ufvyR6F5dH8UZRfUqyFQPpRMtnRpJBPLTOjEmmyca4BmutBf7-mtsx0jduLDZNbY5ptlcXPKO9ooWXGUG7Ka5VRsmVK-BE27O5WALRB4whoHdURK17ARouHD5BtK4DShvLiMPOpk5l3JaxbGqqk682YudC-jUr9G6FpOdT48DAOw4N_wVSmNXTEz2L73ZxkqxDziPUUF7IcL0IKYQTlLkRChLIYkgjSDr-CYsN2ain734kfGMI8gvMxusrqsPrYuG2R-H_99gqcMCNiUm2gVXBDxS3JiFk0llALZZXjALo6JRWmvgHqAUONEjj6aLkLy9u48L_GXjCmhNDFmM_-0bHQGBv-8V]--></g></svg>

