<?xml version="1.0" encoding="us-ascii" standalone="no"?><svg xmlns="http://www.w3.org/2000/svg" xmlns:xlink="http://www.w3.org/1999/xlink" contentStyleType="text/css" height="1062px" preserveAspectRatio="none" style="width:1075px;height:1062px;background:#FFFFFF;" version="1.1" viewBox="0 0 1075 1062" width="1075px" zoomAndPan="magnify"><defs/><g><!--class User--><g id="elem_User"><rect codeLine="3" fill="#F1F1F1" height="196.3945" id="User" rx="2.5" ry="2.5" style="stroke:#181818;stroke-width:0.5;" width="188" x="382" y="7"/><ellipse cx="456.25" cy="23" fill="#ADD1B2" rx="11" ry="11" style="stroke:#181818;stroke-width:1.0;"/><path d="M459.8643,29.5 L452.1445,29.5 L452.1445,17.1069 L459.8643,17.1069 L459.8643,19.2651 L454.5933,19.2651 L454.5933,21.938 L459.3662,21.938 L459.3662,24.0962 L454.5933,24.0962 L454.5933,27.3418 L459.8643,27.3418 Z " fill="#000000"/><text fill="#000000" font-family="sans-serif" font-size="14" lengthAdjust="spacing" textLength="31" x="476.75" y="28.291">User</text><line style="stroke:#181818;stroke-width:0.5;" x1="383" x2="569" y1="39" y2="39"/><ellipse cx="393" cy="52.7441" fill="#000000" rx="3" ry="3" style="stroke:#000000;stroke-width:1.0;"/><text fill="#000000" font-family="sans-serif" font-size="14" lengthAdjust="spacing" textLength="55" x="402" y="56.5352">objectId</text><text fill="#000000" font-family="sans-serif" font-size="14" font-weight="bold" lengthAdjust="spacing" textLength="52" x="461" y="56.5352">user_id</text><text fill="#000000" font-family="sans-serif" font-size="14" lengthAdjust="spacing" textLength="31" x="517" y="56.5352">&#171;PK&#187;</text><line style="stroke:#181818;stroke-width:1.0;" x1="383" x2="569" y1="63.4883" y2="63.4883"/><text fill="#000000" font-family="sans-serif" font-size="14" lengthAdjust="spacing" textLength="40" x="388" y="81.0234">string</text><text fill="#000000" font-family="sans-serif" font-size="14" font-weight="bold" lengthAdjust="spacing" textLength="77" x="432" y="81.0234">first_name</text><text fill="#000000" font-family="sans-serif" font-size="14" lengthAdjust="spacing" textLength="40" x="388" y="97.5117">string</text><text fill="#000000" font-family="sans-serif" font-size="14" font-weight="bold" lengthAdjust="spacing" textLength="73" x="432" y="97.5117">last_name</text><text fill="#000000" font-family="sans-serif" font-size="14" lengthAdjust="spacing" textLength="40" x="388" y="114">string</text><text fill="#000000" font-family="sans-serif" font-size="14" font-weight="bold" lengthAdjust="spacing" textLength="40" x="432" y="114">email</text><text fill="#000000" font-family="sans-serif" font-size="14" lengthAdjust="spacing" textLength="40" x="388" y="130.4883">string</text><text fill="#000000" font-family="sans-serif" font-size="14" font-weight="bold" lengthAdjust="spacing" textLength="132" x="432" y="130.4883">profile_picture_url</text><text fill="#000000" font-family="sans-serif" font-size="14" lengthAdjust="spacing" textLength="20" x="388" y="146.9766">list</text><text fill="#000000" font-family="sans-serif" font-size="14" font-weight="bold" lengthAdjust="spacing" textLength="28" x="412" y="146.9766">role</text><text fill="#000000" font-family="sans-serif" font-size="14" lengthAdjust="spacing" textLength="56" x="388" y="163.4648">boolean</text><text fill="#000000" font-family="sans-serif" font-size="14" font-weight="bold" lengthAdjust="spacing" textLength="62" x="448" y="163.4648">is_active</text><text fill="#000000" font-family="sans-serif" font-size="14" lengthAdjust="spacing" textLength="64" x="388" y="179.9531">dateTime</text><text fill="#000000" font-family="sans-serif" font-size="14" font-weight="bold" lengthAdjust="spacing" textLength="73" x="456" y="179.9531">created_at</text><text fill="#000000" font-family="sans-serif" font-size="14" lengthAdjust="spacing" textLength="64" x="388" y="196.4414">dateTime</text><text fill="#000000" font-family="sans-serif" font-size="14" font-weight="bold" lengthAdjust="spacing" textLength="79" x="456" y="196.4414">updated_at</text></g><!--class Project--><g id="elem_Project"><rect codeLine="16" fill="#F1F1F1" height="229.3711" id="Project" rx="2.5" ry="2.5" style="stroke:#181818;stroke-width:0.5;" width="191" x="380.5" y="263.4"/><ellipse cx="448.25" cy="279.4" fill="#ADD1B2" rx="11" ry="11" style="stroke:#181818;stroke-width:1.0;"/><path d="M451.8643,285.9 L444.1445,285.9 L444.1445,273.5069 L451.8643,273.5069 L451.8643,275.6651 L446.5933,275.6651 L446.5933,278.338 L451.3662,278.338 L451.3662,280.4962 L446.5933,280.4962 L446.5933,283.7418 L451.8643,283.7418 Z " fill="#000000"/><text fill="#000000" font-family="sans-serif" font-size="14" lengthAdjust="spacing" textLength="47" x="468.75" y="284.691">Project</text><line style="stroke:#181818;stroke-width:0.5;" x1="381.5" x2="570.5" y1="295.4" y2="295.4"/><ellipse cx="391.5" cy="309.1441" fill="#000000" rx="3" ry="3" style="stroke:#000000;stroke-width:1.0;"/><text fill="#000000" font-family="sans-serif" font-size="14" lengthAdjust="spacing" textLength="55" x="400.5" y="312.9352">objectId</text><text fill="#000000" font-family="sans-serif" font-size="14" font-weight="bold" lengthAdjust="spacing" textLength="71" x="459.5" y="312.9352">project_id</text><text fill="#000000" font-family="sans-serif" font-size="14" lengthAdjust="spacing" textLength="31" x="534.5" y="312.9352">&#171;PK&#187;</text><line style="stroke:#181818;stroke-width:1.0;" x1="381.5" x2="570.5" y1="319.8883" y2="319.8883"/><text fill="#000000" font-family="sans-serif" font-size="14" lengthAdjust="spacing" textLength="40" x="386.5" y="337.4234">string</text><text fill="#000000" font-family="sans-serif" font-size="14" font-weight="bold" lengthAdjust="spacing" textLength="39" x="430.5" y="337.4234">name</text><text fill="#000000" font-family="sans-serif" font-size="14" lengthAdjust="spacing" textLength="40" x="386.5" y="353.9117">string</text><text fill="#000000" font-family="sans-serif" font-size="14" font-weight="bold" lengthAdjust="spacing" textLength="81" x="430.5" y="353.9117">description</text><text fill="#000000" font-family="sans-serif" font-size="14" lengthAdjust="spacing" textLength="20" x="386.5" y="370.4">list</text><text fill="#000000" font-family="sans-serif" font-size="14" font-weight="bold" lengthAdjust="spacing" textLength="45" x="410.5" y="370.4">status</text><text fill="#000000" font-family="sans-serif" font-size="14" lengthAdjust="spacing" textLength="20" x="386.5" y="386.8883">list</text><text fill="#000000" font-family="sans-serif" font-size="14" font-weight="bold" lengthAdjust="spacing" textLength="54" x="410.5" y="386.8883">priority</text><text fill="#000000" font-family="sans-serif" font-size="14" lengthAdjust="spacing" textLength="64" x="386.5" y="403.3766">dateTime</text><text fill="#000000" font-family="sans-serif" font-size="14" font-weight="bold" lengthAdjust="spacing" textLength="72" x="454.5" y="403.3766">start_date</text><text fill="#000000" font-family="sans-serif" font-size="14" lengthAdjust="spacing" textLength="64" x="386.5" y="419.8648">dateTime</text><text fill="#000000" font-family="sans-serif" font-size="14" font-weight="bold" lengthAdjust="spacing" textLength="64" x="454.5" y="419.8648">end_date</text><text fill="#000000" font-family="sans-serif" font-size="14" lengthAdjust="spacing" textLength="48" x="386.5" y="436.3531">double</text><text fill="#000000" font-family="sans-serif" font-size="14" font-weight="bold" lengthAdjust="spacing" textLength="50" x="438.5" y="436.3531">budget</text><text fill="#000000" font-family="sans-serif" font-size="14" lengthAdjust="spacing" textLength="55" x="386.5" y="452.8414">objectId</text><text fill="#000000" font-family="sans-serif" font-size="14" font-weight="bold" lengthAdjust="spacing" textLength="76" x="445.5" y="452.8414">created_by</text><text fill="#000000" font-family="sans-serif" font-size="14" lengthAdjust="spacing" textLength="31" x="525.5" y="452.8414">&#171;FK&#187;</text><text fill="#000000" font-family="sans-serif" font-size="14" lengthAdjust="spacing" textLength="64" x="386.5" y="469.3297">dateTime</text><text fill="#000000" font-family="sans-serif" font-size="14" font-weight="bold" lengthAdjust="spacing" textLength="73" x="454.5" y="469.3297">created_at</text><text fill="#000000" font-family="sans-serif" font-size="14" lengthAdjust="spacing" textLength="64" x="386.5" y="485.818">dateTime</text><text fill="#000000" font-family="sans-serif" font-size="14" font-weight="bold" lengthAdjust="spacing" textLength="79" x="454.5" y="485.818">updated_at</text></g><!--class Task--><g id="elem_Task"><rect codeLine="31" fill="#F1F1F1" height="262.3477" id="Task" rx="2.5" ry="2.5" style="stroke:#181818;stroke-width:0.5;" width="184" x="235" y="552.77"/><ellipse cx="306.75" cy="568.77" fill="#ADD1B2" rx="11" ry="11" style="stroke:#181818;stroke-width:1.0;"/><path d="M310.3643,575.27 L302.6445,575.27 L302.6445,562.8769 L310.3643,562.8769 L310.3643,565.0351 L305.0933,565.0351 L305.0933,567.708 L309.8662,567.708 L309.8662,569.8662 L305.0933,569.8662 L305.0933,573.1118 L310.3643,573.1118 Z " fill="#000000"/><text fill="#000000" font-family="sans-serif" font-size="14" lengthAdjust="spacing" textLength="32" x="327.25" y="574.061">Task</text><line style="stroke:#181818;stroke-width:0.5;" x1="236" x2="418" y1="584.77" y2="584.77"/><ellipse cx="246" cy="598.5141" fill="#000000" rx="3" ry="3" style="stroke:#000000;stroke-width:1.0;"/><text fill="#000000" font-family="sans-serif" font-size="14" lengthAdjust="spacing" textLength="55" x="255" y="602.3052">objectId</text><text fill="#000000" font-family="sans-serif" font-size="14" font-weight="bold" lengthAdjust="spacing" textLength="52" x="314" y="602.3052">task_id</text><text fill="#000000" font-family="sans-serif" font-size="14" lengthAdjust="spacing" textLength="31" x="370" y="602.3052">&#171;PK&#187;</text><line style="stroke:#181818;stroke-width:1.0;" x1="236" x2="418" y1="609.2583" y2="609.2583"/><text fill="#000000" font-family="sans-serif" font-size="14" lengthAdjust="spacing" textLength="55" x="241" y="626.7934">objectId</text><text fill="#000000" font-family="sans-serif" font-size="14" font-weight="bold" lengthAdjust="spacing" textLength="71" x="300" y="626.7934">project_id</text><text fill="#000000" font-family="sans-serif" font-size="14" lengthAdjust="spacing" textLength="31" x="375" y="626.7934">&#171;FK&#187;</text><text fill="#000000" font-family="sans-serif" font-size="14" lengthAdjust="spacing" textLength="55" x="241" y="643.2817">objectId</text><text fill="#000000" font-family="sans-serif" font-size="14" font-weight="bold" lengthAdjust="spacing" textLength="61" x="300" y="643.2817">executor</text><text fill="#000000" font-family="sans-serif" font-size="14" lengthAdjust="spacing" textLength="31" x="365" y="643.2817">&#171;FK&#187;</text><text fill="#000000" font-family="sans-serif" font-size="14" lengthAdjust="spacing" textLength="40" x="241" y="659.77">string</text><text fill="#000000" font-family="sans-serif" font-size="14" font-weight="bold" lengthAdjust="spacing" textLength="30" x="285" y="659.77">title</text><text fill="#000000" font-family="sans-serif" font-size="14" lengthAdjust="spacing" textLength="40" x="241" y="676.2583">string</text><text fill="#000000" font-family="sans-serif" font-size="14" font-weight="bold" lengthAdjust="spacing" textLength="81" x="285" y="676.2583">description</text><text fill="#000000" font-family="sans-serif" font-size="14" lengthAdjust="spacing" textLength="20" x="241" y="692.7466">list</text><text fill="#000000" font-family="sans-serif" font-size="14" font-weight="bold" lengthAdjust="spacing" textLength="45" x="265" y="692.7466">status</text><text fill="#000000" font-family="sans-serif" font-size="14" lengthAdjust="spacing" textLength="20" x="241" y="709.2348">list</text><text fill="#000000" font-family="sans-serif" font-size="14" font-weight="bold" lengthAdjust="spacing" textLength="54" x="265" y="709.2348">priority</text><text fill="#000000" font-family="sans-serif" font-size="14" lengthAdjust="spacing" textLength="48" x="241" y="725.7231">double</text><text fill="#000000" font-family="sans-serif" font-size="14" font-weight="bold" lengthAdjust="spacing" textLength="120" x="293" y="725.7231">estimated_hours</text><text fill="#000000" font-family="sans-serif" font-size="14" lengthAdjust="spacing" textLength="48" x="241" y="742.2114">double</text><text fill="#000000" font-family="sans-serif" font-size="14" font-weight="bold" lengthAdjust="spacing" textLength="91" x="293" y="742.2114">actual_hours</text><text fill="#000000" font-family="sans-serif" font-size="14" lengthAdjust="spacing" textLength="64" x="241" y="758.6997">dateTime</text><text fill="#000000" font-family="sans-serif" font-size="14" font-weight="bold" lengthAdjust="spacing" textLength="61" x="309" y="758.6997">deadline</text><text fill="#000000" font-family="sans-serif" font-size="14" lengthAdjust="spacing" textLength="55" x="241" y="775.188">objectId</text><text fill="#000000" font-family="sans-serif" font-size="14" font-weight="bold" lengthAdjust="spacing" textLength="76" x="300" y="775.188">created_by</text><text fill="#000000" font-family="sans-serif" font-size="14" lengthAdjust="spacing" textLength="31" x="380" y="775.188">&#171;FK&#187;</text><text fill="#000000" font-family="sans-serif" font-size="14" lengthAdjust="spacing" textLength="64" x="241" y="791.6763">dateTime</text><text fill="#000000" font-family="sans-serif" font-size="14" font-weight="bold" lengthAdjust="spacing" textLength="73" x="309" y="791.6763">created_at</text><text fill="#000000" font-family="sans-serif" font-size="14" lengthAdjust="spacing" textLength="64" x="241" y="808.1645">dateTime</text><text fill="#000000" font-family="sans-serif" font-size="14" font-weight="bold" lengthAdjust="spacing" textLength="79" x="309" y="808.1645">updated_at</text></g><!--class ProjectMember--><g id="elem_ProjectMember"><rect codeLine="48" fill="#F1F1F1" height="97.4648" id="ProjectMember" rx="2.5" ry="2.5" style="stroke:#181818;stroke-width:0.5;" width="212" x="525" y="635.21"/><ellipse cx="575.25" cy="651.21" fill="#ADD1B2" rx="11" ry="11" style="stroke:#181818;stroke-width:1.0;"/><path d="M578.8643,657.71 L571.1445,657.71 L571.1445,645.3169 L578.8643,645.3169 L578.8643,647.4751 L573.5933,647.4751 L573.5933,650.148 L578.3662,650.148 L578.3662,652.3062 L573.5933,652.3062 L573.5933,655.5518 L578.8643,655.5518 Z " fill="#000000"/><text fill="#000000" font-family="sans-serif" font-size="14" lengthAdjust="spacing" textLength="103" x="595.75" y="656.501">ProjectMember</text><line style="stroke:#181818;stroke-width:0.5;" x1="526" x2="736" y1="667.21" y2="667.21"/><ellipse cx="536" cy="680.9541" fill="#000000" rx="3" ry="3" style="stroke:#000000;stroke-width:1.0;"/><text fill="#000000" font-family="sans-serif" font-size="14" lengthAdjust="spacing" textLength="55" x="545" y="684.7452">objectId</text><text fill="#000000" font-family="sans-serif" font-size="14" font-weight="bold" lengthAdjust="spacing" textLength="71" x="604" y="684.7452">project_id</text><text fill="#000000" font-family="sans-serif" font-size="14" lengthAdjust="spacing" textLength="52" x="679" y="684.7452">&#171;FK,PK&#187;</text><ellipse cx="536" cy="697.4424" fill="#000000" rx="3" ry="3" style="stroke:#000000;stroke-width:1.0;"/><text fill="#000000" font-family="sans-serif" font-size="14" lengthAdjust="spacing" textLength="55" x="545" y="701.2334">objectId</text><text fill="#000000" font-family="sans-serif" font-size="14" font-weight="bold" lengthAdjust="spacing" textLength="52" x="604" y="701.2334">user_id</text><text fill="#000000" font-family="sans-serif" font-size="14" lengthAdjust="spacing" textLength="52" x="660" y="701.2334">&#171;FK,PK&#187;</text><line style="stroke:#181818;stroke-width:1.0;" x1="526" x2="736" y1="708.1866" y2="708.1866"/><text fill="#000000" font-family="sans-serif" font-size="14" lengthAdjust="spacing" textLength="20" x="531" y="725.7217">list</text><text fill="#000000" font-family="sans-serif" font-size="14" font-weight="bold" lengthAdjust="spacing" textLength="28" x="555" y="725.7217">role</text></g><!--class Comment--><g id="elem_Comment"><rect codeLine="55" fill="#F1F1F1" height="146.9297" id="Comment" rx="2.5" ry="2.5" style="stroke:#181818;stroke-width:0.5;" width="208" x="7" y="891.6"/><ellipse cx="73.25" cy="907.6" fill="#ADD1B2" rx="11" ry="11" style="stroke:#181818;stroke-width:1.0;"/><path d="M76.8643,914.1 L69.1445,914.1 L69.1445,901.7069 L76.8643,901.7069 L76.8643,903.8651 L71.5933,903.8651 L71.5933,906.538 L76.3662,906.538 L76.3662,908.6962 L71.5933,908.6962 L71.5933,911.9418 L76.8643,911.9418 Z " fill="#000000"/><text fill="#000000" font-family="sans-serif" font-size="14" lengthAdjust="spacing" textLength="67" x="93.75" y="912.891">Comment</text><line style="stroke:#181818;stroke-width:0.5;" x1="8" x2="214" y1="923.6" y2="923.6"/><ellipse cx="18" cy="937.3441" fill="#000000" rx="3" ry="3" style="stroke:#000000;stroke-width:1.0;"/><text fill="#000000" font-family="sans-serif" font-size="14" lengthAdjust="spacing" textLength="55" x="27" y="941.1352">objectId</text><text fill="#000000" font-family="sans-serif" font-size="14" font-weight="bold" lengthAdjust="spacing" textLength="88" x="86" y="941.1352">comment_id</text><text fill="#000000" font-family="sans-serif" font-size="14" lengthAdjust="spacing" textLength="31" x="178" y="941.1352">&#171;PK&#187;</text><line style="stroke:#181818;stroke-width:1.0;" x1="8" x2="214" y1="948.0883" y2="948.0883"/><text fill="#000000" font-family="sans-serif" font-size="14" lengthAdjust="spacing" textLength="55" x="13" y="965.6234">objectId</text><text fill="#000000" font-family="sans-serif" font-size="14" font-weight="bold" lengthAdjust="spacing" textLength="52" x="72" y="965.6234">task_id</text><text fill="#000000" font-family="sans-serif" font-size="14" lengthAdjust="spacing" textLength="31" x="128" y="965.6234">&#171;FK&#187;</text><text fill="#000000" font-family="sans-serif" font-size="14" lengthAdjust="spacing" textLength="55" x="13" y="982.1117">objectId</text><text fill="#000000" font-family="sans-serif" font-size="14" font-weight="bold" lengthAdjust="spacing" textLength="52" x="72" y="982.1117">user_id</text><text fill="#000000" font-family="sans-serif" font-size="14" lengthAdjust="spacing" textLength="31" x="128" y="982.1117">&#171;FK&#187;</text><text fill="#000000" font-family="sans-serif" font-size="14" lengthAdjust="spacing" textLength="40" x="13" y="998.6">string</text><text fill="#000000" font-family="sans-serif" font-size="14" font-weight="bold" lengthAdjust="spacing" textLength="54" x="57" y="998.6">content</text><text fill="#000000" font-family="sans-serif" font-size="14" lengthAdjust="spacing" textLength="64" x="13" y="1015.0883">dateTime</text><text fill="#000000" font-family="sans-serif" font-size="14" font-weight="bold" lengthAdjust="spacing" textLength="73" x="81" y="1015.0883">created_at</text><text fill="#000000" font-family="sans-serif" font-size="14" lengthAdjust="spacing" textLength="64" x="13" y="1031.5766">dateTime</text><text fill="#000000" font-family="sans-serif" font-size="14" font-weight="bold" lengthAdjust="spacing" textLength="79" x="81" y="1031.5766">updated_at</text></g><!--class File--><g id="elem_File"><rect codeLine="65" fill="#F1F1F1" height="179.9063" id="File" rx="2.5" ry="2.5" style="stroke:#181818;stroke-width:0.5;" width="196" x="250" y="875.11"/><ellipse cx="331.75" cy="891.11" fill="#ADD1B2" rx="11" ry="11" style="stroke:#181818;stroke-width:1.0;"/><path d="M335.3643,897.61 L327.6445,897.61 L327.6445,885.2169 L335.3643,885.2169 L335.3643,887.3751 L330.0933,887.3751 L330.0933,890.048 L334.8662,890.048 L334.8662,892.2062 L330.0933,892.2062 L330.0933,895.4518 L335.3643,895.4518 Z " fill="#000000"/><text fill="#000000" font-family="sans-serif" font-size="14" lengthAdjust="spacing" textLength="24" x="352.25" y="896.401">File</text><line style="stroke:#181818;stroke-width:0.5;" x1="251" x2="445" y1="907.11" y2="907.11"/><ellipse cx="261" cy="920.8541" fill="#000000" rx="3" ry="3" style="stroke:#000000;stroke-width:1.0;"/><text fill="#000000" font-family="sans-serif" font-size="14" lengthAdjust="spacing" textLength="55" x="270" y="924.6452">objectId</text><text fill="#000000" font-family="sans-serif" font-size="14" font-weight="bold" lengthAdjust="spacing" textLength="45" x="329" y="924.6452">file_id</text><text fill="#000000" font-family="sans-serif" font-size="14" lengthAdjust="spacing" textLength="31" x="378" y="924.6452">&#171;PK&#187;</text><line style="stroke:#181818;stroke-width:1.0;" x1="251" x2="445" y1="931.5983" y2="931.5983"/><text fill="#000000" font-family="sans-serif" font-size="14" lengthAdjust="spacing" textLength="55" x="256" y="949.1334">objectId</text><text fill="#000000" font-family="sans-serif" font-size="14" font-weight="bold" lengthAdjust="spacing" textLength="71" x="315" y="949.1334">project_id</text><text fill="#000000" font-family="sans-serif" font-size="14" lengthAdjust="spacing" textLength="31" x="390" y="949.1334">&#171;FK&#187;</text><text fill="#000000" font-family="sans-serif" font-size="14" lengthAdjust="spacing" textLength="55" x="256" y="965.6217">objectId</text><text fill="#000000" font-family="sans-serif" font-size="14" font-weight="bold" lengthAdjust="spacing" textLength="52" x="315" y="965.6217">task_id</text><text fill="#000000" font-family="sans-serif" font-size="14" lengthAdjust="spacing" textLength="31" x="371" y="965.6217">&#171;FK&#187;</text><text fill="#000000" font-family="sans-serif" font-size="14" lengthAdjust="spacing" textLength="55" x="256" y="982.11">objectId</text><text fill="#000000" font-family="sans-serif" font-size="14" font-weight="bold" lengthAdjust="spacing" textLength="90" x="315" y="982.11">uploaded_by</text><text fill="#000000" font-family="sans-serif" font-size="14" lengthAdjust="spacing" textLength="31" x="409" y="982.11">&#171;FK&#187;</text><text fill="#000000" font-family="sans-serif" font-size="14" lengthAdjust="spacing" textLength="40" x="256" y="998.5983">string</text><text fill="#000000" font-family="sans-serif" font-size="14" font-weight="bold" lengthAdjust="spacing" textLength="39" x="300" y="998.5983">name</text><text fill="#000000" font-family="sans-serif" font-size="14" lengthAdjust="spacing" textLength="40" x="256" y="1015.0866">string</text><text fill="#000000" font-family="sans-serif" font-size="14" font-weight="bold" lengthAdjust="spacing" textLength="63" x="300" y="1015.0866">file_path</text><text fill="#000000" font-family="sans-serif" font-size="14" lengthAdjust="spacing" textLength="48" x="256" y="1031.5748">double</text><text fill="#000000" font-family="sans-serif" font-size="14" font-weight="bold" lengthAdjust="spacing" textLength="60" x="308" y="1031.5748">file_size</text><text fill="#000000" font-family="sans-serif" font-size="14" lengthAdjust="spacing" textLength="64" x="256" y="1048.0631">dateTime</text><text fill="#000000" font-family="sans-serif" font-size="14" font-weight="bold" lengthAdjust="spacing" textLength="73" x="324" y="1048.0631">created_at</text></g><!--class TimeLog--><g id="elem_TimeLog"><rect codeLine="77" fill="#F1F1F1" height="163.418" id="TimeLog" rx="2.5" ry="2.5" style="stroke:#181818;stroke-width:0.5;" width="165" x="594.5" y="883.36"/><ellipse cx="643.25" cy="899.36" fill="#ADD1B2" rx="11" ry="11" style="stroke:#181818;stroke-width:1.0;"/><path d="M646.8643,905.86 L639.1445,905.86 L639.1445,893.4669 L646.8643,893.4669 L646.8643,895.6251 L641.5933,895.6251 L641.5933,898.298 L646.3662,898.298 L646.3662,900.4562 L641.5933,900.4562 L641.5933,903.7018 L646.8643,903.7018 Z " fill="#000000"/><text fill="#000000" font-family="sans-serif" font-size="14" lengthAdjust="spacing" textLength="59" x="663.75" y="904.651">TimeLog</text><line style="stroke:#181818;stroke-width:0.5;" x1="595.5" x2="758.5" y1="915.36" y2="915.36"/><ellipse cx="605.5" cy="929.1041" fill="#000000" rx="3" ry="3" style="stroke:#000000;stroke-width:1.0;"/><text fill="#000000" font-family="sans-serif" font-size="14" lengthAdjust="spacing" textLength="55" x="614.5" y="932.8952">objectId</text><text fill="#000000" font-family="sans-serif" font-size="14" font-weight="bold" lengthAdjust="spacing" textLength="44" x="673.5" y="932.8952">log_id</text><text fill="#000000" font-family="sans-serif" font-size="14" lengthAdjust="spacing" textLength="31" x="721.5" y="932.8952">&#171;PK&#187;</text><line style="stroke:#181818;stroke-width:1.0;" x1="595.5" x2="758.5" y1="939.8483" y2="939.8483"/><text fill="#000000" font-family="sans-serif" font-size="14" lengthAdjust="spacing" textLength="55" x="600.5" y="957.3834">objectId</text><text fill="#000000" font-family="sans-serif" font-size="14" font-weight="bold" lengthAdjust="spacing" textLength="52" x="659.5" y="957.3834">task_id</text><text fill="#000000" font-family="sans-serif" font-size="14" lengthAdjust="spacing" textLength="31" x="715.5" y="957.3834">&#171;FK&#187;</text><text fill="#000000" font-family="sans-serif" font-size="14" lengthAdjust="spacing" textLength="55" x="600.5" y="973.8717">objectId</text><text fill="#000000" font-family="sans-serif" font-size="14" font-weight="bold" lengthAdjust="spacing" textLength="52" x="659.5" y="973.8717">user_id</text><text fill="#000000" font-family="sans-serif" font-size="14" lengthAdjust="spacing" textLength="31" x="715.5" y="973.8717">&#171;FK&#187;</text><text fill="#000000" font-family="sans-serif" font-size="14" lengthAdjust="spacing" textLength="48" x="600.5" y="990.36">double</text><text fill="#000000" font-family="sans-serif" font-size="14" font-weight="bold" lengthAdjust="spacing" textLength="101" x="652.5" y="990.36">hours_worked</text><text fill="#000000" font-family="sans-serif" font-size="14" lengthAdjust="spacing" textLength="40" x="600.5" y="1006.8483">string</text><text fill="#000000" font-family="sans-serif" font-size="14" font-weight="bold" lengthAdjust="spacing" textLength="81" x="644.5" y="1006.8483">description</text><text fill="#000000" font-family="sans-serif" font-size="14" lengthAdjust="spacing" textLength="64" x="600.5" y="1023.3366">dateTime</text><text fill="#000000" font-family="sans-serif" font-size="14" font-weight="bold" lengthAdjust="spacing" textLength="74" x="668.5" y="1023.3366">work_date</text><text fill="#000000" font-family="sans-serif" font-size="14" lengthAdjust="spacing" textLength="64" x="600.5" y="1039.8248">dateTime</text><text fill="#000000" font-family="sans-serif" font-size="14" font-weight="bold" lengthAdjust="spacing" textLength="73" x="668.5" y="1039.8248">created_at</text></g><!--class Notification--><g id="elem_Notification"><rect codeLine="88" fill="#F1F1F1" height="130.4414" id="Notification" rx="2.5" ry="2.5" style="stroke:#181818;stroke-width:0.5;" width="225" x="843.5" y="312.86"/><ellipse cx="912.25" cy="328.86" fill="#ADD1B2" rx="11" ry="11" style="stroke:#181818;stroke-width:1.0;"/><path d="M915.8643,335.36 L908.1445,335.36 L908.1445,322.9669 L915.8643,322.9669 L915.8643,325.1251 L910.5933,325.1251 L910.5933,327.798 L915.3662,327.798 L915.3662,329.9562 L910.5933,329.9562 L910.5933,333.2018 L915.8643,333.2018 Z " fill="#000000"/><text fill="#000000" font-family="sans-serif" font-size="14" lengthAdjust="spacing" textLength="79" x="932.75" y="334.151">Notification</text><line style="stroke:#181818;stroke-width:0.5;" x1="844.5" x2="1067.5" y1="344.86" y2="344.86"/><ellipse cx="854.5" cy="358.6041" fill="#000000" rx="3" ry="3" style="stroke:#000000;stroke-width:1.0;"/><text fill="#000000" font-family="sans-serif" font-size="14" lengthAdjust="spacing" textLength="55" x="863.5" y="362.3952">objectId</text><text fill="#000000" font-family="sans-serif" font-size="14" font-weight="bold" lengthAdjust="spacing" textLength="105" x="922.5" y="362.3952">notification_id</text><text fill="#000000" font-family="sans-serif" font-size="14" lengthAdjust="spacing" textLength="31" x="1031.5" y="362.3952">&#171;PK&#187;</text><line style="stroke:#181818;stroke-width:1.0;" x1="844.5" x2="1067.5" y1="369.3483" y2="369.3483"/><text fill="#000000" font-family="sans-serif" font-size="14" lengthAdjust="spacing" textLength="55" x="849.5" y="386.8834">objectId</text><text fill="#000000" font-family="sans-serif" font-size="14" font-weight="bold" lengthAdjust="spacing" textLength="52" x="908.5" y="386.8834">user_id</text><text fill="#000000" font-family="sans-serif" font-size="14" lengthAdjust="spacing" textLength="31" x="964.5" y="386.8834">&#171;FK&#187;</text><text fill="#000000" font-family="sans-serif" font-size="14" lengthAdjust="spacing" textLength="40" x="849.5" y="403.3717">string</text><text fill="#000000" font-family="sans-serif" font-size="14" font-weight="bold" lengthAdjust="spacing" textLength="30" x="893.5" y="403.3717">title</text><text fill="#000000" font-family="sans-serif" font-size="14" lengthAdjust="spacing" textLength="40" x="849.5" y="419.86">string</text><text fill="#000000" font-family="sans-serif" font-size="14" font-weight="bold" lengthAdjust="spacing" textLength="63" x="893.5" y="419.86">message</text><text fill="#000000" font-family="sans-serif" font-size="14" lengthAdjust="spacing" textLength="64" x="849.5" y="436.3483">dateTime</text><text fill="#000000" font-family="sans-serif" font-size="14" font-weight="bold" lengthAdjust="spacing" textLength="73" x="917.5" y="436.3483">created_at</text></g><!--link User to Project--><g id="link_User_Project"><path codeLine="97" d="M476,211.71 C476,230.95 476,225.28 476,245 " fill="none" id="User-Project" style="stroke:#181818;stroke-width:1.0;"/><line style="stroke:#181818;stroke-width:1.0;" x1="472" x2="480" y1="207.71" y2="207.71"/><line style="stroke:#181818;stroke-width:1.0;" x1="472" x2="480" y1="210.71" y2="210.71"/><line style="stroke:#181818;stroke-width:1.0;" x1="476" x2="476" y1="211.71" y2="203.71"/><line style="stroke:#181818;stroke-width:1.0;" x1="476" x2="482" y1="255" y2="263"/><line style="stroke:#181818;stroke-width:1.0;" x1="476" x2="470" y1="255" y2="263"/><line style="stroke:#181818;stroke-width:1.0;" x1="476" x2="476" y1="255" y2="263"/><ellipse cx="476" cy="249" fill="none" rx="4" ry="4" style="stroke:#181818;stroke-width:1.0;"/><text fill="#000000" font-family="sans-serif" font-size="13" lengthAdjust="spacing" textLength="45" x="430" y="229.9284">creates</text></g><!--link User to Task--><g id="link_User_Task"><path codeLine="98" d="M373.55,154.3 C335.19,154.3 307.75,154.3 307.75,154.3 C307.75,154.3 307.75,377.48 307.75,534.34 " fill="none" id="User-Task" style="stroke:#181818;stroke-width:1.0;"/><line style="stroke:#181818;stroke-width:1.0;" x1="377.55" x2="377.55" y1="150.3" y2="158.3"/><line style="stroke:#181818;stroke-width:1.0;" x1="374.55" x2="374.55" y1="150.3" y2="158.3"/><line style="stroke:#181818;stroke-width:1.0;" x1="373.55" x2="381.55" y1="154.3" y2="154.3"/><line style="stroke:#181818;stroke-width:1.0;" x1="307.75" x2="313.75" y1="544.34" y2="552.34"/><line style="stroke:#181818;stroke-width:1.0;" x1="307.75" x2="301.75" y1="544.34" y2="552.34"/><line style="stroke:#181818;stroke-width:1.0;" x1="307.75" x2="307.75" y1="544.34" y2="552.34"/><ellipse cx="307.75" cy="538.34" fill="none" rx="4" ry="4" style="stroke:#181818;stroke-width:1.0;"/><text fill="#000000" font-family="sans-serif" font-size="13" lengthAdjust="spacing" textLength="128" x="178.75" y="312.9884">creates/assigned_to</text></g><!--link User to Comment--><g id="link_User_Comment"><path codeLine="99" d="M373.53,56.1 C265.38,56.1 111,56.1 111,56.1 C111,56.1 111,657.06 111,873.45 " fill="none" id="User-Comment" style="stroke:#181818;stroke-width:1.0;"/><line style="stroke:#181818;stroke-width:1.0;" x1="377.53" x2="377.53" y1="52.1" y2="60.1"/><line style="stroke:#181818;stroke-width:1.0;" x1="374.53" x2="374.53" y1="52.1" y2="60.1"/><line style="stroke:#181818;stroke-width:1.0;" x1="373.53" x2="381.53" y1="56.1" y2="56.1"/><line style="stroke:#181818;stroke-width:1.0;" x1="111" x2="117" y1="883.45" y2="891.45"/><line style="stroke:#181818;stroke-width:1.0;" x1="111" x2="105" y1="883.45" y2="891.45"/><line style="stroke:#181818;stroke-width:1.0;" x1="111" x2="111" y1="883.45" y2="891.45"/><ellipse cx="111" cy="877.45" fill="none" rx="4" ry="4" style="stroke:#181818;stroke-width:1.0;"/><text fill="#000000" font-family="sans-serif" font-size="13" lengthAdjust="spacing" textLength="38" x="72" y="335.0784">writes</text></g><!--link User to File--><g id="link_User_File"><path codeLine="100" d="M373.82,105.2 C302.6,105.2 225,105.2 225,105.2 C225,105.2 225,883.36 225,883.36 C225,883.36 217.14,883.36 231.6,883.36 " fill="none" id="User-File" style="stroke:#181818;stroke-width:1.0;"/><line style="stroke:#181818;stroke-width:1.0;" x1="377.82" x2="377.82" y1="101.2" y2="109.2"/><line style="stroke:#181818;stroke-width:1.0;" x1="374.82" x2="374.82" y1="101.2" y2="109.2"/><line style="stroke:#181818;stroke-width:1.0;" x1="373.82" x2="381.82" y1="105.2" y2="105.2"/><line style="stroke:#181818;stroke-width:1.0;" x1="241.6" x2="249.6" y1="883.36" y2="877.36"/><line style="stroke:#181818;stroke-width:1.0;" x1="241.6" x2="249.6" y1="883.36" y2="889.36"/><line style="stroke:#181818;stroke-width:1.0;" x1="241.6" x2="249.6" y1="883.36" y2="883.36"/><ellipse cx="235.6" cy="883.36" fill="none" rx="4" ry="4" style="stroke:#181818;stroke-width:1.0;"/><text fill="#000000" font-family="sans-serif" font-size="13" lengthAdjust="spacing" textLength="50" x="174" y="424.7284">uploads</text></g><!--link User to TimeLog--><g id="link_User_TimeLog"><path codeLine="101" d="M578.46,105.2 C657.09,105.2 748.25,105.2 748.25,105.2 C748.25,105.2 748.25,650.08 748.25,865.01 " fill="none" id="User-TimeLog" style="stroke:#181818;stroke-width:1.0;"/><line style="stroke:#181818;stroke-width:1.0;" x1="574.46" x2="574.46" y1="109.2" y2="101.2"/><line style="stroke:#181818;stroke-width:1.0;" x1="577.46" x2="577.46" y1="109.2" y2="101.2"/><line style="stroke:#181818;stroke-width:1.0;" x1="578.46" x2="570.46" y1="105.2" y2="105.2"/><line style="stroke:#181818;stroke-width:1.0;" x1="748.25" x2="754.25" y1="875.01" y2="883.01"/><line style="stroke:#181818;stroke-width:1.0;" x1="748.25" x2="742.25" y1="875.01" y2="883.01"/><line style="stroke:#181818;stroke-width:1.0;" x1="748.25" x2="748.25" y1="875.01" y2="883.01"/><ellipse cx="748.25" cy="869.01" fill="none" rx="4" ry="4" style="stroke:#181818;stroke-width:1.0;"/><text fill="#000000" font-family="sans-serif" font-size="13" lengthAdjust="spacing" textLength="62" x="685.25" y="401.7784">logs_time</text></g><!--link User to Notification--><g id="link_User_Notification"><path codeLine="102" d="M578.26,56.1 C718.05,56.1 956,56.1 956,56.1 C956,56.1 956,200.39 956,294.53 " fill="none" id="User-Notification" style="stroke:#181818;stroke-width:1.0;"/><line style="stroke:#181818;stroke-width:1.0;" x1="574.26" x2="574.26" y1="60.1" y2="52.1"/><line style="stroke:#181818;stroke-width:1.0;" x1="577.26" x2="577.26" y1="60.1" y2="52.1"/><line style="stroke:#181818;stroke-width:1.0;" x1="578.26" x2="570.26" y1="56.1" y2="56.1"/><line style="stroke:#181818;stroke-width:1.0;" x1="956" x2="962" y1="304.53" y2="312.53"/><line style="stroke:#181818;stroke-width:1.0;" x1="956" x2="950" y1="304.53" y2="312.53"/><line style="stroke:#181818;stroke-width:1.0;" x1="956" x2="956" y1="304.53" y2="312.53"/><ellipse cx="956" cy="298.53" fill="none" rx="4" ry="4" style="stroke:#181818;stroke-width:1.0;"/><text fill="#000000" font-family="sans-serif" font-size="13" lengthAdjust="spacing" textLength="51" x="839.35" y="52.6684">receives</text></g><!--link Project to Task--><g id="link_Project_Task"><path codeLine="104" d="M399.75,500.84 C399.75,520.25 399.75,514.54 399.75,534.33 " fill="none" id="Project-Task" style="stroke:#181818;stroke-width:1.0;"/><line style="stroke:#181818;stroke-width:1.0;" x1="395.75" x2="403.75" y1="496.84" y2="496.84"/><line style="stroke:#181818;stroke-width:1.0;" x1="395.75" x2="403.75" y1="499.84" y2="499.84"/><line style="stroke:#181818;stroke-width:1.0;" x1="399.75" x2="399.75" y1="500.84" y2="492.84"/><line style="stroke:#181818;stroke-width:1.0;" x1="399.75" x2="405.75" y1="544.33" y2="552.33"/><line style="stroke:#181818;stroke-width:1.0;" x1="399.75" x2="393.75" y1="544.33" y2="552.33"/><line style="stroke:#181818;stroke-width:1.0;" x1="399.75" x2="399.75" y1="544.33" y2="552.33"/><ellipse cx="399.75" cy="538.33" fill="none" rx="4" ry="4" style="stroke:#181818;stroke-width:1.0;"/><text fill="#000000" font-family="sans-serif" font-size="13" lengthAdjust="spacing" textLength="54" x="344.75" y="519.1584">contains</text></g><!--link Project to ProjectMember--><g id="link_Project_ProjectMember"><path codeLine="105" d="M548.25,500.84 C548.25,550 548.25,578.78 548.25,617.04 " fill="none" id="Project-ProjectMember" style="stroke:#181818;stroke-width:1.0;"/><line style="stroke:#181818;stroke-width:1.0;" x1="544.25" x2="552.25" y1="496.84" y2="496.84"/><line style="stroke:#181818;stroke-width:1.0;" x1="544.25" x2="552.25" y1="499.84" y2="499.84"/><line style="stroke:#181818;stroke-width:1.0;" x1="548.25" x2="548.25" y1="500.84" y2="492.84"/><line style="stroke:#181818;stroke-width:1.0;" x1="548.25" x2="554.25" y1="627.04" y2="635.04"/><line style="stroke:#181818;stroke-width:1.0;" x1="548.25" x2="542.25" y1="627.04" y2="635.04"/><line style="stroke:#181818;stroke-width:1.0;" x1="548.25" x2="548.25" y1="627.04" y2="635.04"/><ellipse cx="548.25" cy="621.04" fill="none" rx="4" ry="4" style="stroke:#181818;stroke-width:1.0;"/><text fill="#000000" font-family="sans-serif" font-size="13" lengthAdjust="spacing" textLength="87" x="460.25" y="560.5084">has_members</text></g><!--link Project to File--><g id="link_Project_File"><path codeLine="106" d="M432.5,501 C432.5,612.81 432.5,754.4 432.5,856.91 " fill="none" id="Project-File" style="stroke:#181818;stroke-width:1.0;"/><line style="stroke:#181818;stroke-width:1.0;" x1="428.5" x2="436.5" y1="497" y2="497"/><line style="stroke:#181818;stroke-width:1.0;" x1="428.5" x2="436.5" y1="500" y2="500"/><line style="stroke:#181818;stroke-width:1.0;" x1="432.5" x2="432.5" y1="501" y2="493"/><line style="stroke:#181818;stroke-width:1.0;" x1="432.5" x2="438.5" y1="866.91" y2="874.91"/><line style="stroke:#181818;stroke-width:1.0;" x1="432.5" x2="426.5" y1="866.91" y2="874.91"/><line style="stroke:#181818;stroke-width:1.0;" x1="432.5" x2="432.5" y1="866.91" y2="874.91"/><ellipse cx="432.5" cy="860.91" fill="none" rx="4" ry="4" style="stroke:#181818;stroke-width:1.0;"/><text fill="#000000" font-family="sans-serif" font-size="13" lengthAdjust="spacing" textLength="88" x="433.5" y="680.5284">contains_files</text></g><!--link Task to Comment--><g id="link_Task_Comment"><path codeLine="108" d="M242.5,823.45 C242.5,896.62 242.5,965.07 242.5,965.07 C242.5,965.07 249.21,965.07 233.25,965.07 " fill="none" id="Task-Comment" style="stroke:#181818;stroke-width:1.0;"/><line style="stroke:#181818;stroke-width:1.0;" x1="238.5" x2="246.5" y1="819.45" y2="819.45"/><line style="stroke:#181818;stroke-width:1.0;" x1="238.5" x2="246.5" y1="822.45" y2="822.45"/><line style="stroke:#181818;stroke-width:1.0;" x1="242.5" x2="242.5" y1="823.45" y2="815.45"/><line style="stroke:#181818;stroke-width:1.0;" x1="223.25" x2="215.25" y1="965.07" y2="971.07"/><line style="stroke:#181818;stroke-width:1.0;" x1="223.25" x2="215.25" y1="965.07" y2="959.07"/><line style="stroke:#181818;stroke-width:1.0;" x1="223.25" x2="215.25" y1="965.07" y2="965.07"/><ellipse cx="229.25" cy="965.07" fill="none" rx="4" ry="4" style="stroke:#181818;stroke-width:1.0;"/><text fill="#000000" font-family="sans-serif" font-size="13" lengthAdjust="spacing" textLength="95" x="146.5" y="900.4484">has_comments</text></g><!--link Task to File--><g id="link_Task_File"><path codeLine="109" d="M334.5,823.45 C334.5,843.6 334.5,838 334.5,856.98 " fill="none" id="Task-File" style="stroke:#181818;stroke-width:1.0;"/><line style="stroke:#181818;stroke-width:1.0;" x1="330.5" x2="338.5" y1="819.45" y2="819.45"/><line style="stroke:#181818;stroke-width:1.0;" x1="330.5" x2="338.5" y1="822.45" y2="822.45"/><line style="stroke:#181818;stroke-width:1.0;" x1="334.5" x2="334.5" y1="823.45" y2="815.45"/><line style="stroke:#181818;stroke-width:1.0;" x1="334.5" x2="340.5" y1="866.98" y2="874.98"/><line style="stroke:#181818;stroke-width:1.0;" x1="334.5" x2="328.5" y1="866.98" y2="874.98"/><line style="stroke:#181818;stroke-width:1.0;" x1="334.5" x2="334.5" y1="866.98" y2="874.98"/><ellipse cx="334.5" cy="860.98" fill="none" rx="4" ry="4" style="stroke:#181818;stroke-width:1.0;"/><text fill="#000000" font-family="sans-serif" font-size="13" lengthAdjust="spacing" textLength="107" x="226.5" y="841.7784">has_attachments</text></g><!--link Task to TimeLog--><g id="link_Task_TimeLog"><path codeLine="110" d="M427.12,773.89 C527.43,773.89 665.75,773.89 665.75,773.89 C665.75,773.89 665.75,813.07 665.75,864.88 " fill="none" id="Task-TimeLog" style="stroke:#181818;stroke-width:1.0;"/><line style="stroke:#181818;stroke-width:1.0;" x1="423.12" x2="423.12" y1="777.89" y2="769.89"/><line style="stroke:#181818;stroke-width:1.0;" x1="426.12" x2="426.12" y1="777.89" y2="769.89"/><line style="stroke:#181818;stroke-width:1.0;" x1="427.12" x2="419.12" y1="773.89" y2="773.89"/><line style="stroke:#181818;stroke-width:1.0;" x1="665.75" x2="671.75" y1="874.88" y2="882.88"/><line style="stroke:#181818;stroke-width:1.0;" x1="665.75" x2="659.75" y1="874.88" y2="882.88"/><line style="stroke:#181818;stroke-width:1.0;" x1="665.75" x2="665.75" y1="874.88" y2="882.88"/><ellipse cx="665.75" cy="868.88" fill="none" rx="4" ry="4" style="stroke:#181818;stroke-width:1.0;"/><text fill="#000000" font-family="sans-serif" font-size="13" lengthAdjust="spacing" textLength="74" x="521.93" y="770.4584">tracks_time</text></g><!--link ProjectMember to User--><g id="link_ProjectMember_User"><path codeLine="112" d="M654.25,617.06 C654.25,485.94 654.25,154.3 654.25,154.3 C654.25,154.3 621.1,154.3 578.34,154.3 " fill="none" id="ProjectMember-User" style="stroke:#181818;stroke-width:1.0;"/><line style="stroke:#181818;stroke-width:1.0;" x1="654.25" x2="660.25" y1="627.06" y2="635.06"/><line style="stroke:#181818;stroke-width:1.0;" x1="654.25" x2="648.25" y1="627.06" y2="635.06"/><line style="stroke:#181818;stroke-width:1.0;" x1="654.25" x2="654.25" y1="627.06" y2="635.06"/><ellipse cx="654.25" cy="621.06" fill="none" rx="4" ry="4" style="stroke:#181818;stroke-width:1.0;"/><line style="stroke:#181818;stroke-width:1.0;" x1="574.34" x2="574.34" y1="158.3" y2="150.3"/><line style="stroke:#181818;stroke-width:1.0;" x1="577.34" x2="577.34" y1="158.3" y2="150.3"/><line style="stroke:#181818;stroke-width:1.0;" x1="578.34" x2="570.34" y1="154.3" y2="154.3"/><text fill="#000000" font-family="sans-serif" font-size="13" lengthAdjust="spacing" textLength="69" x="584.25" y="349.2984">is_member</text></g><!--SRC=[jLPDRzim3BtxLmWz6ZDs7ufU1XGOze4UkhCXoup3nPOCYLwNDVtlewquaQny7D9T0eVlXU9x8kcu3UfUMjc95ZNGjWTXBArDbe4cfAtuwS2Arqo8N9Zg5oZwKeiy7pXQOftdulx-wUl30-D5mH-EBEg62IkqZaejEyZpCDxAGrY4SUWajZ6rjsQ5BPGzAXeib8FrX1OTCMnDwtDNXf-avX2wKYh2tpvUIu9dx801PO6_rAMa9JBqzH5vEwX-icRKcWhlFN1HUwgw1gSizeH6Xn8SIHfS6Eaj6ii5BCjafgLo32mHq7KGDqFLZj5gg1lmOeFYPnkgxLJyeo_-5f-UfTka9X57JpbqtiTzAG41_e0QoDWGFlZ9PxVlO_5i63Z2RbAuDeDrCSXDDSWsH8x6r23hSNJ-lzVxdlmENNLg91D7F-ojFpkuHyfqE_5S7S_zRBgE7zCJbGUkt7JO3Earn_N4jwoC9iv_yp0_yXP9gvzsourDUaLRtnfP9prmOK_uVITf7VVV57Ruz_9U2wQIqM-cIJMtfddlspeKEKr7-MBi1aQ2k3ISWOJn1oSNsnbjFmpX2fKSSwK2TO1UKNgfyqxibmwSaytLAgVNvMvN5ERry1Bv9EuypTr5-BGyZ-17wHmscfEHYOdp13BtXLVNCi_KtupvVbiUiky5nldsNSbh3c96v2ZJB2ZWToZdoMO5ou9vC2LgPYm8yOfYvbgwifk-fUIvx3bRERRvUEfqJ2fzpBLVESmAINEcaI69f5gV80L6a9LgCrkHnKM_cQBOxVpV7gRYNFzTzWy0]--></g></svg>
