<svg xmlns="http://www.w3.org/2000/svg" xmlns:xlink="http://www.w3.org/1999/xlink" contentStyleType="text/css" data-diagram-type="SEQUENCE" height="711px" preserveAspectRatio="none" style="width:1643px;height:711px;background:#FFFFFF;" version="1.1" viewBox="0 0 1643 711" width="1643px" zoomAndPan="magnify"><title>&#1047;&#1072;&#1075;&#1088;&#1091;&#1079;&#1082;&#1072; &#1092;&#1072;&#1081;&#1083;&#1072; &#1074; &#1087;&#1088;&#1086;&#1077;&#1082;&#1090;</title><defs/><g><text fill="#000000" font-family="sans-serif" font-size="14" font-weight="bold" lengthAdjust="spacing" textLength="205.6934" x="718.0178" y="27.9951">&#1047;&#1072;&#1075;&#1088;&#1091;&#1079;&#1082;&#1072; &#1092;&#1072;&#1081;&#1083;&#1072; &#1074; &#1087;&#1088;&#1086;&#1077;&#1082;&#1090;</text><g><title>User</title><rect fill="#000000" fill-opacity="0.00000" height="512.125" width="8" x="19.9551" y="118.5938"/><line style="stroke:#181818;stroke-width:0.5;stroke-dasharray:5.0,5.0;" x1="23" x2="23" y1="118.5938" y2="630.7188"/></g><g><title>Web Client</title><rect fill="#000000" fill-opacity="0.00000" height="512.125" width="8" x="227.542" y="118.5938"/><line style="stroke:#181818;stroke-width:0.5;stroke-dasharray:5.0,5.0;" x1="231.3804" x2="231.3804" y1="118.5938" y2="630.7188"/></g><g><title>API Gateway</title><rect fill="#000000" fill-opacity="0.00000" height="512.125" width="8" x="475.9443" y="118.5938"/><line style="stroke:#181818;stroke-width:0.5;stroke-dasharray:5.0,5.0;" x1="479.7227" x2="479.7227" y1="118.5938" y2="630.7188"/></g><g><title>File Service</title><rect fill="#000000" fill-opacity="0.00000" height="512.125" width="8" x="644.9438" y="118.5938"/><line style="stroke:#181818;stroke-width:0.5;stroke-dasharray:5.0,5.0;" x1="648.6255" x2="648.6255" y1="118.5938" y2="630.7188"/></g><g><title>Cloud Storage</title><rect fill="#000000" fill-opacity="0.00000" height="512.125" width="8" x="878.8457" y="118.5938"/><line style="stroke:#181818;stroke-width:0.5;stroke-dasharray:5.0,5.0;" x1="882.2373" x2="882.2373" y1="118.5938" y2="630.7188"/></g><g><title>File Database</title><rect fill="#000000" fill-opacity="0.00000" height="512.125" width="8" x="996.3022" y="118.5938"/><line style="stroke:#181818;stroke-width:0.5;stroke-dasharray:5.0,5.0;" x1="999.4541" x2="999.4541" y1="118.5938" y2="630.7188"/></g><g><title>Message Queue</title><rect fill="#000000" fill-opacity="0.00000" height="512.125" width="8" x="1123.0513" y="118.5938"/><line style="stroke:#181818;stroke-width:0.5;stroke-dasharray:5.0,5.0;" x1="1126.1504" x2="1126.1504" y1="118.5938" y2="630.7188"/></g><g><title>Notification Service</title><rect fill="#000000" fill-opacity="0.00000" height="512.125" width="8" x="1342.4766" y="118.5938"/><line style="stroke:#181818;stroke-width:0.5;stroke-dasharray:5.0,5.0;" x1="1346.2163" x2="1346.2163" y1="118.5938" y2="630.7188"/></g><g><title>Project Service</title><rect fill="#000000" fill-opacity="0.00000" height="512.125" width="8" x="1574.4067" y="118.5938"/><line style="stroke:#181818;stroke-width:0.5;stroke-dasharray:5.0,5.0;" x1="1578.0845" x2="1578.0845" y1="118.5938" y2="630.7188"/></g><g class="participant participant-head" data-participant="User"><text fill="#000000" font-family="sans-serif" font-size="14" lengthAdjust="spacing" textLength="31.9102" x="5" y="115.292">User</text><ellipse cx="23.9551" cy="50.7969" fill="#E2E2F0" rx="8" ry="8" style="stroke:#181818;stroke-width:0.5;"/><path d="M23.9551,58.7969 L23.9551,85.7969 M10.9551,66.7969 L36.9551,66.7969 M23.9551,85.7969 L10.9551,100.7969 M23.9551,85.7969 L36.9551,100.7969" fill="none" style="stroke:#181818;stroke-width:0.5;"/></g><g class="participant participant-tail" data-participant="User"><text fill="#000000" font-family="sans-serif" font-size="14" lengthAdjust="spacing" textLength="31.9102" x="5" y="642.7139">User</text><ellipse cx="23.9551" cy="654.5156" fill="#E2E2F0" rx="8" ry="8" style="stroke:#181818;stroke-width:0.5;"/><path d="M23.9551,662.5156 L23.9551,689.5156 M10.9551,670.5156 L36.9551,670.5156 M23.9551,689.5156 L10.9551,704.5156 M23.9551,689.5156 L36.9551,704.5156" fill="none" style="stroke:#181818;stroke-width:0.5;"/></g><g class="participant participant-head" data-participant="WC"><rect fill="#E2E2F0" height="30.2969" rx="2.5" ry="2.5" style="stroke:#181818;stroke-width:0.5;" width="90.3232" x="186.3804" y="87.2969"/><text fill="#000000" font-family="sans-serif" font-size="14" lengthAdjust="spacing" textLength="76.3232" x="193.3804" y="107.292">Web Client</text></g><g class="participant participant-tail" data-participant="WC"><rect fill="#E2E2F0" height="30.2969" rx="2.5" ry="2.5" style="stroke:#181818;stroke-width:0.5;" width="90.3232" x="186.3804" y="629.7188"/><text fill="#000000" font-family="sans-serif" font-size="14" lengthAdjust="spacing" textLength="76.3232" x="193.3804" y="649.7139">Web Client</text></g><g class="participant participant-head" data-participant="API"><rect fill="#E2E2F0" height="30.2969" rx="2.5" ry="2.5" style="stroke:#181818;stroke-width:0.5;" width="102.4434" x="428.7227" y="87.2969"/><text fill="#000000" font-family="sans-serif" font-size="14" lengthAdjust="spacing" textLength="88.4434" x="435.7227" y="107.292">API Gateway</text></g><g class="participant participant-tail" data-participant="API"><rect fill="#E2E2F0" height="30.2969" rx="2.5" ry="2.5" style="stroke:#181818;stroke-width:0.5;" width="102.4434" x="428.7227" y="629.7188"/><text fill="#000000" font-family="sans-serif" font-size="14" lengthAdjust="spacing" textLength="88.4434" x="435.7227" y="649.7139">API Gateway</text></g><g class="participant participant-head" data-participant="FS"><rect fill="#E2E2F0" height="30.2969" rx="2.5" ry="2.5" style="stroke:#181818;stroke-width:0.5;" width="94.6367" x="601.6255" y="87.2969"/><text fill="#000000" font-family="sans-serif" font-size="14" lengthAdjust="spacing" textLength="80.6367" x="608.6255" y="107.292">File Service</text></g><g class="participant participant-tail" data-participant="FS"><rect fill="#E2E2F0" height="30.2969" rx="2.5" ry="2.5" style="stroke:#181818;stroke-width:0.5;" width="94.6367" x="601.6255" y="629.7188"/><text fill="#000000" font-family="sans-serif" font-size="14" lengthAdjust="spacing" textLength="80.6367" x="608.6255" y="649.7139">File Service</text></g><g class="participant participant-head" data-participant="CS"><rect fill="#E2E2F0" height="30.2969" rx="2.5" ry="2.5" style="stroke:#181818;stroke-width:0.5;" width="113.2168" x="826.2373" y="87.2969"/><text fill="#000000" font-family="sans-serif" font-size="14" lengthAdjust="spacing" textLength="99.2168" x="833.2373" y="107.292">Cloud Storage</text></g><g class="participant participant-tail" data-participant="CS"><rect fill="#E2E2F0" height="30.2969" rx="2.5" ry="2.5" style="stroke:#181818;stroke-width:0.5;" width="113.2168" x="826.2373" y="629.7188"/><text fill="#000000" font-family="sans-serif" font-size="14" lengthAdjust="spacing" textLength="99.2168" x="833.2373" y="649.7139">Cloud Storage</text></g><g class="participant participant-head" data-participant="FDB"><text fill="#000000" font-family="sans-serif" font-size="14" lengthAdjust="spacing" textLength="95.6963" x="949.4541" y="115.292">File Database</text><path d="M982.3022,66.2969 C982.3022,56.2969 1000.3022,56.2969 1000.3022,56.2969 C1000.3022,56.2969 1018.3022,56.2969 1018.3022,66.2969 L1018.3022,92.2969 C1018.3022,102.2969 1000.3022,102.2969 1000.3022,102.2969 C1000.3022,102.2969 982.3022,102.2969 982.3022,92.2969 L982.3022,66.2969" fill="#E2E2F0" style="stroke:#181818;stroke-width:1.5;"/><path d="M982.3022,66.2969 C982.3022,76.2969 1000.3022,76.2969 1000.3022,76.2969 C1000.3022,76.2969 1018.3022,76.2969 1018.3022,66.2969" fill="none" style="stroke:#181818;stroke-width:1.5;"/></g><g class="participant participant-tail" data-participant="FDB"><text fill="#000000" font-family="sans-serif" font-size="14" lengthAdjust="spacing" textLength="95.6963" x="949.4541" y="642.7139">File Database</text><path d="M982.3022,656.0156 C982.3022,646.0156 1000.3022,646.0156 1000.3022,646.0156 C1000.3022,646.0156 1018.3022,646.0156 1018.3022,656.0156 L1018.3022,682.0156 C1018.3022,692.0156 1000.3022,692.0156 1000.3022,692.0156 C1000.3022,692.0156 982.3022,692.0156 982.3022,682.0156 L982.3022,656.0156" fill="#E2E2F0" style="stroke:#181818;stroke-width:1.5;"/><path d="M982.3022,656.0156 C982.3022,666.0156 1000.3022,666.0156 1000.3022,666.0156 C1000.3022,666.0156 1018.3022,666.0156 1018.3022,656.0156" fill="none" style="stroke:#181818;stroke-width:1.5;"/></g><g class="participant participant-head" data-participant="MQ"><path d="M1066.1504,92.2969 L1187.9521,92.2969 C1192.9521,92.2969 1192.9521,105.4453 1192.9521,105.4453 C1192.9521,105.4453 1192.9521,118.5938 1187.9521,118.5938 L1066.1504,118.5938 C1061.1504,118.5938 1061.1504,105.4453 1061.1504,105.4453 C1061.1504,105.4453 1061.1504,92.2969 1066.1504,92.2969" fill="#E2E2F0" style="stroke:#181818;stroke-width:0.5;"/><path d="M1187.9521,92.2969 C1182.9521,92.2969 1182.9521,105.4453 1182.9521,105.4453 C1182.9521,118.5938 1187.9521,118.5938 1187.9521,118.5938" fill="none" style="stroke:#181818;stroke-width:0.5;"/><text fill="#000000" font-family="sans-serif" font-size="14" lengthAdjust="spacing" textLength="111.8018" x="1066.1504" y="110.292">Message Queue</text></g><g class="participant participant-tail" data-participant="MQ"><path d="M1066.1504,629.7188 L1187.9521,629.7188 C1192.9521,629.7188 1192.9521,642.8672 1192.9521,642.8672 C1192.9521,642.8672 1192.9521,656.0156 1187.9521,656.0156 L1066.1504,656.0156 C1061.1504,656.0156 1061.1504,642.8672 1061.1504,642.8672 C1061.1504,642.8672 1061.1504,629.7188 1066.1504,629.7188" fill="#E2E2F0" style="stroke:#181818;stroke-width:0.5;"/><path d="M1187.9521,629.7188 C1182.9521,629.7188 1182.9521,642.8672 1182.9521,642.8672 C1182.9521,656.0156 1187.9521,656.0156 1187.9521,656.0156" fill="none" style="stroke:#181818;stroke-width:0.5;"/><text fill="#000000" font-family="sans-serif" font-size="14" lengthAdjust="spacing" textLength="111.8018" x="1066.1504" y="647.7139">Message Queue</text></g><g class="participant participant-head" data-participant="NS"><rect fill="#E2E2F0" height="30.2969" rx="2.5" ry="2.5" style="stroke:#181818;stroke-width:0.5;" width="150.5205" x="1271.2163" y="87.2969"/><text fill="#000000" font-family="sans-serif" font-size="14" lengthAdjust="spacing" textLength="136.5205" x="1278.2163" y="107.292">Notification Service</text></g><g class="participant participant-tail" data-participant="NS"><rect fill="#E2E2F0" height="30.2969" rx="2.5" ry="2.5" style="stroke:#181818;stroke-width:0.5;" width="150.5205" x="1271.2163" y="629.7188"/><text fill="#000000" font-family="sans-serif" font-size="14" lengthAdjust="spacing" textLength="136.5205" x="1278.2163" y="649.7139">Notification Service</text></g><g class="participant participant-head" data-participant="PS"><rect fill="#E2E2F0" height="30.2969" rx="2.5" ry="2.5" style="stroke:#181818;stroke-width:0.5;" width="118.6445" x="1519.0845" y="87.2969"/><text fill="#000000" font-family="sans-serif" font-size="14" lengthAdjust="spacing" textLength="104.6445" x="1526.0845" y="107.292">Project Service</text></g><g class="participant participant-tail" data-participant="PS"><rect fill="#E2E2F0" height="30.2969" rx="2.5" ry="2.5" style="stroke:#181818;stroke-width:0.5;" width="118.6445" x="1519.0845" y="629.7188"/><text fill="#000000" font-family="sans-serif" font-size="14" lengthAdjust="spacing" textLength="104.6445" x="1526.0845" y="649.7139">Project Service</text></g><g class="message" data-participant-1="User" data-participant-2="WC"><polygon fill="#181818" points="219.542,145.7266,229.542,149.7266,219.542,153.7266,223.542,149.7266" style="stroke:#181818;stroke-width:1;"/><line style="stroke:#181818;stroke-width:1;" x1="23.9551" x2="225.542" y1="149.7266" y2="149.7266"/><text fill="#000000" font-family="sans-serif" font-size="13" lengthAdjust="spacing" textLength="183.5869" x="30.9551" y="144.6606">&#1042;&#1099;&#1073;&#1088;&#1072;&#1090;&#1100; &#1080; &#1079;&#1072;&#1075;&#1088;&#1091;&#1079;&#1080;&#1090;&#1100; &#1092;&#1072;&#1081;&#1083;</text></g><g class="message" data-participant-1="WC" data-participant-2="API"><polygon fill="#181818" points="467.9443,174.8594,477.9443,178.8594,467.9443,182.8594,471.9443,178.8594" style="stroke:#181818;stroke-width:1;"/><line style="stroke:#181818;stroke-width:1;" x1="231.542" x2="473.9443" y1="178.8594" y2="178.8594"/><text fill="#000000" font-family="sans-serif" font-size="13" lengthAdjust="spacing" textLength="216.3726" x="238.542" y="173.7935">POST /api/files/upload (multipart)</text></g><g class="message" data-participant-1="API" data-participant-2="FS"><polygon fill="#181818" points="636.9438,203.9922,646.9438,207.9922,636.9438,211.9922,640.9438,207.9922" style="stroke:#181818;stroke-width:1;"/><line style="stroke:#181818;stroke-width:1;" x1="479.9443" x2="642.9438" y1="207.9922" y2="207.9922"/><text fill="#000000" font-family="sans-serif" font-size="13" lengthAdjust="spacing" textLength="118.0029" x="486.9443" y="202.9263">POST /files/upload</text></g><g class="message" data-participant-1="FS" data-participant-2="FS"><line style="stroke:#181818;stroke-width:1;" x1="648.9438" x2="690.9438" y1="237.125" y2="237.125"/><line style="stroke:#181818;stroke-width:1;" x1="690.9438" x2="690.9438" y1="237.125" y2="250.125"/><line style="stroke:#181818;stroke-width:1;" x1="649.9438" x2="690.9438" y1="250.125" y2="250.125"/><polygon fill="#181818" points="659.9438,246.125,649.9438,250.125,659.9438,254.125,655.9438,250.125" style="stroke:#181818;stroke-width:1;"/><text fill="#000000" font-family="sans-serif" font-size="13" lengthAdjust="spacing" textLength="219.9019" x="655.9438" y="232.0591">&#1042;&#1072;&#1083;&#1080;&#1076;&#1072;&#1094;&#1080;&#1103; &#1092;&#1072;&#1081;&#1083;&#1072; (&#1088;&#1072;&#1079;&#1084;&#1077;&#1088;, &#1090;&#1080;&#1087;)</text></g><g class="message" data-participant-1="FS" data-participant-2="CS"><polygon fill="#181818" points="870.8457,275.2578,880.8457,279.2578,870.8457,283.2578,874.8457,279.2578" style="stroke:#181818;stroke-width:1;"/><line style="stroke:#181818;stroke-width:1;" x1="648.9438" x2="876.8457" y1="279.2578" y2="279.2578"/><text fill="#000000" font-family="sans-serif" font-size="13" lengthAdjust="spacing" textLength="173.6211" x="655.9438" y="274.1919">&#1047;&#1072;&#1075;&#1088;&#1091;&#1079;&#1080;&#1090;&#1100; &#1092;&#1072;&#1081;&#1083; &#1074; &#1086;&#1073;&#1083;&#1072;&#1082;&#1086;</text></g><g class="message" data-participant-1="CS" data-participant-2="FS"><polygon fill="#181818" points="659.9438,304.3906,649.9438,308.3906,659.9438,312.3906,655.9438,308.3906" style="stroke:#181818;stroke-width:1;"/><line style="stroke:#181818;stroke-width:1;" x1="653.9438" x2="881.8457" y1="308.3906" y2="308.3906"/><text fill="#000000" font-family="sans-serif" font-size="13" lengthAdjust="spacing" textLength="73.728" x="665.9438" y="303.3247">URL &#1092;&#1072;&#1081;&#1083;&#1072;</text></g><g class="message" data-participant-1="FS" data-participant-2="FDB"><polygon fill="#181818" points="988.3022,333.5234,998.3022,337.5234,988.3022,341.5234,992.3022,337.5234" style="stroke:#181818;stroke-width:1;"/><line style="stroke:#181818;stroke-width:1;" x1="648.9438" x2="994.3022" y1="337.5234" y2="337.5234"/><text fill="#000000" font-family="sans-serif" font-size="13" lengthAdjust="spacing" textLength="195.5776" x="655.9438" y="332.4575">INSERT INTO file_attachments</text></g><g class="message" data-participant-1="FDB" data-participant-2="FS"><polygon fill="#181818" points="659.9438,362.6563,649.9438,366.6563,659.9438,370.6563,655.9438,366.6563" style="stroke:#181818;stroke-width:1;"/><line style="stroke:#181818;stroke-width:1;" x1="653.9438" x2="999.3022" y1="366.6563" y2="366.6563"/><text fill="#000000" font-family="sans-serif" font-size="13" lengthAdjust="spacing" textLength="92.0981" x="665.9438" y="361.5903">file_id created</text></g><g class="message" data-participant-1="FS" data-participant-2="MQ"><polygon fill="#181818" points="1115.0513,391.7891,1125.0513,395.7891,1115.0513,399.7891,1119.0513,395.7891" style="stroke:#181818;stroke-width:1;"/><line style="stroke:#181818;stroke-width:1;" x1="648.9438" x2="1121.0513" y1="395.7891" y2="395.7891"/><text fill="#000000" font-family="sans-serif" font-size="13" lengthAdjust="spacing" textLength="181.0479" x="655.9438" y="390.7231">Publish file_uploaded_event</text></g><g class="message" data-participant-1="FS" data-participant-2="API"><polygon fill="#181818" points="490.9443,420.9219,480.9443,424.9219,490.9443,428.9219,486.9443,424.9219" style="stroke:#181818;stroke-width:1;"/><line style="stroke:#181818;stroke-width:1;" x1="484.9443" x2="647.9438" y1="424.9219" y2="424.9219"/><text fill="#000000" font-family="sans-serif" font-size="13" lengthAdjust="spacing" textLength="144.9995" x="496.9443" y="419.856">&#1060;&#1072;&#1081;&#1083; &#1079;&#1072;&#1075;&#1088;&#1091;&#1078;&#1077;&#1085; (201)</text></g><g class="message" data-participant-1="API" data-participant-2="WC"><polygon fill="#181818" points="242.542,450.0547,232.542,454.0547,242.542,458.0547,238.542,454.0547" style="stroke:#181818;stroke-width:1;"/><line style="stroke:#181818;stroke-width:1;" x1="236.542" x2="478.9443" y1="454.0547" y2="454.0547"/><text fill="#000000" font-family="sans-serif" font-size="13" lengthAdjust="spacing" textLength="224.4023" x="248.542" y="448.9888">HTTP 201 Created + file metadata</text></g><g class="message" data-participant-1="WC" data-participant-2="User"><polygon fill="#181818" points="34.9551,479.1875,24.9551,483.1875,34.9551,487.1875,30.9551,483.1875" style="stroke:#181818;stroke-width:1;"/><line style="stroke:#181818;stroke-width:1;" x1="28.9551" x2="230.542" y1="483.1875" y2="483.1875"/><text fill="#000000" font-family="sans-serif" font-size="13" lengthAdjust="spacing" textLength="169.73" x="40.9551" y="478.1216">&#1060;&#1072;&#1081;&#1083; &#1091;&#1089;&#1087;&#1077;&#1096;&#1085;&#1086; &#1079;&#1072;&#1075;&#1088;&#1091;&#1078;&#1077;&#1085;</text></g><g class="message" data-participant-1="MQ" data-participant-2="NS"><polygon fill="#181818" points="1334.4766,508.3203,1344.4766,512.3203,1334.4766,516.3203,1338.4766,512.3203" style="stroke:#181818;stroke-width:1;"/><line style="stroke:#181818;stroke-width:1;" x1="1127.0513" x2="1340.4766" y1="512.3203" y2="512.3203"/><text fill="#000000" font-family="sans-serif" font-size="13" lengthAdjust="spacing" textLength="195.4253" x="1134.0513" y="507.2544">Consume file_uploaded_event</text></g><g class="message" data-participant-1="NS" data-participant-2="PS"><polygon fill="#181818" points="1566.4067,537.4531,1576.4067,541.4531,1566.4067,545.4531,1570.4067,541.4531" style="stroke:#181818;stroke-width:1;"/><line style="stroke:#181818;stroke-width:1;" x1="1346.4766" x2="1572.4067" y1="541.4531" y2="541.4531"/><text fill="#000000" font-family="sans-serif" font-size="13" lengthAdjust="spacing" textLength="207.9302" x="1353.4766" y="536.3872">&#1055;&#1086;&#1083;&#1091;&#1095;&#1080;&#1090;&#1100; &#1091;&#1095;&#1072;&#1089;&#1090;&#1085;&#1080;&#1082;&#1086;&#1074; &#1087;&#1088;&#1086;&#1077;&#1082;&#1090;&#1072;</text></g><g class="message" data-participant-1="PS" data-participant-2="NS"><polygon fill="#181818" points="1357.4766,566.5859,1347.4766,570.5859,1357.4766,574.5859,1353.4766,570.5859" style="stroke:#181818;stroke-width:1;"/><line style="stroke:#181818;stroke-width:1;" x1="1351.4766" x2="1577.4067" y1="570.5859" y2="570.5859"/><text fill="#000000" font-family="sans-serif" font-size="13" lengthAdjust="spacing" textLength="131.5869" x="1363.4766" y="565.52">&#1057;&#1087;&#1080;&#1089;&#1086;&#1082; &#1091;&#1095;&#1072;&#1089;&#1090;&#1085;&#1080;&#1082;&#1086;&#1074;</text></g><g class="message" data-participant-1="NS" data-participant-2="NS"><line style="stroke:#181818;stroke-width:1;" x1="1346.4766" x2="1388.4766" y1="599.7188" y2="599.7188"/><line style="stroke:#181818;stroke-width:1;" x1="1388.4766" x2="1388.4766" y1="599.7188" y2="612.7188"/><line style="stroke:#181818;stroke-width:1;" x1="1347.4766" x2="1388.4766" y1="612.7188" y2="612.7188"/><polygon fill="#181818" points="1357.4766,608.7188,1347.4766,612.7188,1357.4766,616.7188,1353.4766,612.7188" style="stroke:#181818;stroke-width:1;"/><text fill="#000000" font-family="sans-serif" font-size="13" lengthAdjust="spacing" textLength="169.1777" x="1353.4766" y="594.6528">&#1054;&#1090;&#1087;&#1088;&#1072;&#1074;&#1080;&#1090;&#1100; &#1091;&#1074;&#1077;&#1076;&#1086;&#1084;&#1083;&#1077;&#1085;&#1080;&#1103;</text></g><!--SRC=[TLF1RjD04BtlLunoIWGem3479EeGg4HIfqwLOxMnjtIH4mTxNSGjJL510Wcfbzv0I7n0MWY4X3Y_CFj7p3fs6vToykxEcpTlteoLLBu0FCS9VjSZVOA_S8uJq6_fuJSkw8YNW2izmWIdEDTZnhYhWX1AUv48Iy0ZC0SsvA6IhXpoWO9IL_J0ygKOg1JGjOhXn_OsFELAlEPlqZZTYu2694sE28-aAr94moa2B3-8FN181t-nHbWEyxZYFHw9BB-UNTS4zItsAXOn1PiYYYWBskQQ1flj8dihKF90kbp9O52GqReXmmw3by9L1OpjC6OSWNkFgF4Qu9d-W1VatqIFzKV06P35rsRFqjVSRjQrJ1uPKWDxn-b0bGzbzO3QYQhnq0-u1-L-x2jfP5GOCquIlk7ay4qeQpXv4C-8Vu4p_44oJgdefyq9buqwql87ftfq5_IOWAjAbcwPzFF_AaxN8y4BGqIRap3hgkZUxlEDAYoNKz-gmNRBURBReKzd1upaVQuKTm_xj34H8qHEaSQa1sueQ5-ydAFPfdxZdY-ZmpLatR3mziKHKMIer4NybkkyTlqdRV8IoW_lFwZa3ff9FUjqRA17iDRLu4vA3dsXkDcjR3Xck1ky-aGVuugSUuzBJFufmrYpRR9Qr8qL3AAuBswLt4ebsyRiB-JdWcZVvLQRuqGVqroMD1ao-SOlIURQJbu4lvAQ6MbAS7vhQbOgnNwcm2gT_kLLCJfEQKyIMeU5wS1iory0]--></g></svg>