<svg xmlns="http://www.w3.org/2000/svg" xmlns:xlink="http://www.w3.org/1999/xlink" contentStyleType="text/css" data-diagram-type="SEQUENCE" height="669px" preserveAspectRatio="none" style="width:1551px;height:669px;background:#FFFFFF;" version="1.1" viewBox="0 0 1551 669" width="1551px" zoomAndPan="magnify"><title>&#1054;&#1073;&#1085;&#1086;&#1074;&#1083;&#1077;&#1085;&#1080;&#1077; &#1089;&#1090;&#1072;&#1090;&#1091;&#1089;&#1072; &#1079;&#1072;&#1076;&#1072;&#1095;&#1080;</title><defs/><g><text fill="#000000" font-family="sans-serif" font-size="14" font-weight="bold" lengthAdjust="spacing" textLength="226.9053" x="661.26" y="27.9951">&#1054;&#1073;&#1085;&#1086;&#1074;&#1083;&#1077;&#1085;&#1080;&#1077; &#1089;&#1090;&#1072;&#1090;&#1091;&#1089;&#1072; &#1079;&#1072;&#1076;&#1072;&#1095;&#1080;</text><g><title>User</title><rect fill="#000000" fill-opacity="0.00000" height="469.9922" width="8" x="19.9551" y="118.5938"/><line style="stroke:#181818;stroke-width:0.5;stroke-dasharray:5.0,5.0;" x1="23" x2="23" y1="118.5938" y2="588.5859"/></g><g><title>Web Client</title><rect fill="#000000" fill-opacity="0.00000" height="469.9922" width="8" x="212.1045" y="118.5938"/><line style="stroke:#181818;stroke-width:0.5;stroke-dasharray:5.0,5.0;" x1="215.9429" x2="215.9429" y1="118.5938" y2="588.5859"/></g><g><title>API Gateway</title><rect fill="#000000" fill-opacity="0.00000" height="469.9922" width="8" x="405.3711" y="118.5938"/><line style="stroke:#181818;stroke-width:0.5;stroke-dasharray:5.0,5.0;" x1="409.1494" x2="409.1494" y1="118.5938" y2="588.5859"/></g><g><title>Task Service</title><rect fill="#000000" fill-opacity="0.00000" height="469.9922" width="8" x="584.5142" y="118.5938"/><line style="stroke:#181818;stroke-width:0.5;stroke-dasharray:5.0,5.0;" x1="588.1523" x2="588.1523" y1="118.5938" y2="588.5859"/></g><g><title>Project.Task Database</title><rect fill="#000000" fill-opacity="0.00000" height="469.9922" width="8" x="823.7886" y="118.5938"/><line style="stroke:#181818;stroke-width:0.5;stroke-dasharray:5.0,5.0;" x1="827.312" x2="827.312" y1="118.5938" y2="588.5859"/></g><g><title>Message Queue</title><rect fill="#000000" fill-opacity="0.00000" height="469.9922" width="8" x="981.166" y="118.5938"/><line style="stroke:#181818;stroke-width:0.5;stroke-dasharray:5.0,5.0;" x1="984.2651" x2="984.2651" y1="118.5938" y2="588.5859"/></g><g><title>Notification Service</title><rect fill="#000000" fill-opacity="0.00000" height="469.9922" width="8" x="1250.1729" y="118.5938"/><line style="stroke:#181818;stroke-width:0.5;stroke-dasharray:5.0,5.0;" x1="1253.9126" x2="1253.9126" y1="118.5938" y2="588.5859"/></g><g><title>Project Service</title><rect fill="#000000" fill-opacity="0.00000" height="469.9922" width="8" x="1482.103" y="118.5938"/><line style="stroke:#181818;stroke-width:0.5;stroke-dasharray:5.0,5.0;" x1="1485.7808" x2="1485.7808" y1="118.5938" y2="588.5859"/></g><g class="participant participant-head" data-participant="User"><text fill="#000000" font-family="sans-serif" font-size="14" lengthAdjust="spacing" textLength="31.9102" x="5" y="115.292">User</text><ellipse cx="23.9551" cy="50.7969" fill="#E2E2F0" rx="8" ry="8" style="stroke:#181818;stroke-width:0.5;"/><path d="M23.9551,58.7969 L23.9551,85.7969 M10.9551,66.7969 L36.9551,66.7969 M23.9551,85.7969 L10.9551,100.7969 M23.9551,85.7969 L36.9551,100.7969" fill="none" style="stroke:#181818;stroke-width:0.5;"/></g><g class="participant participant-tail" data-participant="User"><text fill="#000000" font-family="sans-serif" font-size="14" lengthAdjust="spacing" textLength="31.9102" x="5" y="600.5811">User</text><ellipse cx="23.9551" cy="612.3828" fill="#E2E2F0" rx="8" ry="8" style="stroke:#181818;stroke-width:0.5;"/><path d="M23.9551,620.3828 L23.9551,647.3828 M10.9551,628.3828 L36.9551,628.3828 M23.9551,647.3828 L10.9551,662.3828 M23.9551,647.3828 L36.9551,662.3828" fill="none" style="stroke:#181818;stroke-width:0.5;"/></g><g class="participant participant-head" data-participant="WC"><rect fill="#E2E2F0" height="30.2969" rx="2.5" ry="2.5" style="stroke:#181818;stroke-width:0.5;" width="90.3232" x="170.9429" y="87.2969"/><text fill="#000000" font-family="sans-serif" font-size="14" lengthAdjust="spacing" textLength="76.3232" x="177.9429" y="107.292">Web Client</text></g><g class="participant participant-tail" data-participant="WC"><rect fill="#E2E2F0" height="30.2969" rx="2.5" ry="2.5" style="stroke:#181818;stroke-width:0.5;" width="90.3232" x="170.9429" y="587.5859"/><text fill="#000000" font-family="sans-serif" font-size="14" lengthAdjust="spacing" textLength="76.3232" x="177.9429" y="607.5811">Web Client</text></g><g class="participant participant-head" data-participant="API"><rect fill="#E2E2F0" height="30.2969" rx="2.5" ry="2.5" style="stroke:#181818;stroke-width:0.5;" width="102.4434" x="358.1494" y="87.2969"/><text fill="#000000" font-family="sans-serif" font-size="14" lengthAdjust="spacing" textLength="88.4434" x="365.1494" y="107.292">API Gateway</text></g><g class="participant participant-tail" data-participant="API"><rect fill="#E2E2F0" height="30.2969" rx="2.5" ry="2.5" style="stroke:#181818;stroke-width:0.5;" width="102.4434" x="358.1494" y="587.5859"/><text fill="#000000" font-family="sans-serif" font-size="14" lengthAdjust="spacing" textLength="88.4434" x="365.1494" y="607.5811">API Gateway</text></g><g class="participant participant-head" data-participant="TS"><rect fill="#E2E2F0" height="30.2969" rx="2.5" ry="2.5" style="stroke:#181818;stroke-width:0.5;" width="102.7236" x="537.1523" y="87.2969"/><text fill="#000000" font-family="sans-serif" font-size="14" lengthAdjust="spacing" textLength="88.7236" x="544.1523" y="107.292">Task Service</text></g><g class="participant participant-tail" data-participant="TS"><rect fill="#E2E2F0" height="30.2969" rx="2.5" ry="2.5" style="stroke:#181818;stroke-width:0.5;" width="102.7236" x="537.1523" y="587.5859"/><text fill="#000000" font-family="sans-serif" font-size="14" lengthAdjust="spacing" textLength="88.7236" x="544.1523" y="607.5811">Task Service</text></g><g class="participant participant-head" data-participant="PTDB"><text fill="#000000" font-family="sans-serif" font-size="14" lengthAdjust="spacing" textLength="156.9531" x="746.312" y="115.292">Project/Task Database</text><path d="M809.7886,66.2969 C809.7886,56.2969 827.7886,56.2969 827.7886,56.2969 C827.7886,56.2969 845.7886,56.2969 845.7886,66.2969 L845.7886,92.2969 C845.7886,102.2969 827.7886,102.2969 827.7886,102.2969 C827.7886,102.2969 809.7886,102.2969 809.7886,92.2969 L809.7886,66.2969" fill="#E2E2F0" style="stroke:#181818;stroke-width:1.5;"/><path d="M809.7886,66.2969 C809.7886,76.2969 827.7886,76.2969 827.7886,76.2969 C827.7886,76.2969 845.7886,76.2969 845.7886,66.2969" fill="none" style="stroke:#181818;stroke-width:1.5;"/></g><g class="participant participant-tail" data-participant="PTDB"><text fill="#000000" font-family="sans-serif" font-size="14" lengthAdjust="spacing" textLength="156.9531" x="746.312" y="600.5811">Project/Task Database</text><path d="M809.7886,613.8828 C809.7886,603.8828 827.7886,603.8828 827.7886,603.8828 C827.7886,603.8828 845.7886,603.8828 845.7886,613.8828 L845.7886,639.8828 C845.7886,649.8828 827.7886,649.8828 827.7886,649.8828 C827.7886,649.8828 809.7886,649.8828 809.7886,639.8828 L809.7886,613.8828" fill="#E2E2F0" style="stroke:#181818;stroke-width:1.5;"/><path d="M809.7886,613.8828 C809.7886,623.8828 827.7886,623.8828 827.7886,623.8828 C827.7886,623.8828 845.7886,623.8828 845.7886,613.8828" fill="none" style="stroke:#181818;stroke-width:1.5;"/></g><g class="participant participant-head" data-participant="MQ"><path d="M924.2651,92.2969 L1046.0669,92.2969 C1051.0669,92.2969 1051.0669,105.4453 1051.0669,105.4453 C1051.0669,105.4453 1051.0669,118.5938 1046.0669,118.5938 L924.2651,118.5938 C919.2651,118.5938 919.2651,105.4453 919.2651,105.4453 C919.2651,105.4453 919.2651,92.2969 924.2651,92.2969" fill="#E2E2F0" style="stroke:#181818;stroke-width:0.5;"/><path d="M1046.0669,92.2969 C1041.0669,92.2969 1041.0669,105.4453 1041.0669,105.4453 C1041.0669,118.5938 1046.0669,118.5938 1046.0669,118.5938" fill="none" style="stroke:#181818;stroke-width:0.5;"/><text fill="#000000" font-family="sans-serif" font-size="14" lengthAdjust="spacing" textLength="111.8018" x="924.2651" y="110.292">Message Queue</text></g><g class="participant participant-tail" data-participant="MQ"><path d="M924.2651,587.5859 L1046.0669,587.5859 C1051.0669,587.5859 1051.0669,600.7344 1051.0669,600.7344 C1051.0669,600.7344 1051.0669,613.8828 1046.0669,613.8828 L924.2651,613.8828 C919.2651,613.8828 919.2651,600.7344 919.2651,600.7344 C919.2651,600.7344 919.2651,587.5859 924.2651,587.5859" fill="#E2E2F0" style="stroke:#181818;stroke-width:0.5;"/><path d="M1046.0669,587.5859 C1041.0669,587.5859 1041.0669,600.7344 1041.0669,600.7344 C1041.0669,613.8828 1046.0669,613.8828 1046.0669,613.8828" fill="none" style="stroke:#181818;stroke-width:0.5;"/><text fill="#000000" font-family="sans-serif" font-size="14" lengthAdjust="spacing" textLength="111.8018" x="924.2651" y="605.5811">Message Queue</text></g><g class="participant participant-head" data-participant="NS"><rect fill="#E2E2F0" height="30.2969" rx="2.5" ry="2.5" style="stroke:#181818;stroke-width:0.5;" width="150.5205" x="1178.9126" y="87.2969"/><text fill="#000000" font-family="sans-serif" font-size="14" lengthAdjust="spacing" textLength="136.5205" x="1185.9126" y="107.292">Notification Service</text></g><g class="participant participant-tail" data-participant="NS"><rect fill="#E2E2F0" height="30.2969" rx="2.5" ry="2.5" style="stroke:#181818;stroke-width:0.5;" width="150.5205" x="1178.9126" y="587.5859"/><text fill="#000000" font-family="sans-serif" font-size="14" lengthAdjust="spacing" textLength="136.5205" x="1185.9126" y="607.5811">Notification Service</text></g><g class="participant participant-head" data-participant="PS"><rect fill="#E2E2F0" height="30.2969" rx="2.5" ry="2.5" style="stroke:#181818;stroke-width:0.5;" width="118.6445" x="1426.7808" y="87.2969"/><text fill="#000000" font-family="sans-serif" font-size="14" lengthAdjust="spacing" textLength="104.6445" x="1433.7808" y="107.292">Project Service</text></g><g class="participant participant-tail" data-participant="PS"><rect fill="#E2E2F0" height="30.2969" rx="2.5" ry="2.5" style="stroke:#181818;stroke-width:0.5;" width="118.6445" x="1426.7808" y="587.5859"/><text fill="#000000" font-family="sans-serif" font-size="14" lengthAdjust="spacing" textLength="104.6445" x="1433.7808" y="607.5811">Project Service</text></g><g class="message" data-participant-1="User" data-participant-2="WC"><polygon fill="#181818" points="204.1045,145.7266,214.1045,149.7266,204.1045,153.7266,208.1045,149.7266" style="stroke:#181818;stroke-width:1;"/><line style="stroke:#181818;stroke-width:1;" x1="23.9551" x2="210.1045" y1="149.7266" y2="149.7266"/><text fill="#000000" font-family="sans-serif" font-size="13" lengthAdjust="spacing" textLength="167.375" x="30.9551" y="144.6606">&#1054;&#1073;&#1085;&#1086;&#1074;&#1080;&#1090;&#1100; &#1089;&#1090;&#1072;&#1090;&#1091;&#1089; &#1079;&#1072;&#1076;&#1072;&#1095;&#1080;</text></g><g class="message" data-participant-1="WC" data-participant-2="API"><polygon fill="#181818" points="397.3711,174.8594,407.3711,178.8594,397.3711,182.8594,401.3711,178.8594" style="stroke:#181818;stroke-width:1;"/><line style="stroke:#181818;stroke-width:1;" x1="216.1045" x2="403.3711" y1="178.8594" y2="178.8594"/><text fill="#000000" font-family="sans-serif" font-size="13" lengthAdjust="spacing" textLength="169.2666" x="223.1045" y="173.7935">PUT /api/tasks/{id}/status</text></g><g class="message" data-participant-1="API" data-participant-2="TS"><polygon fill="#181818" points="576.5142,203.9922,586.5142,207.9922,576.5142,211.9922,580.5142,207.9922" style="stroke:#181818;stroke-width:1;"/><line style="stroke:#181818;stroke-width:1;" x1="409.3711" x2="582.5142" y1="207.9922" y2="207.9922"/><text fill="#000000" font-family="sans-serif" font-size="13" lengthAdjust="spacing" textLength="145.0566" x="416.3711" y="202.9263">PUT /tasks/{id}/status</text></g><g class="message" data-participant-1="TS" data-participant-2="PTDB"><polygon fill="#181818" points="815.7886,233.125,825.7886,237.125,815.7886,241.125,819.7886,237.125" style="stroke:#181818;stroke-width:1;"/><line style="stroke:#181818;stroke-width:1;" x1="588.5142" x2="821.7886" y1="237.125" y2="237.125"/><text fill="#000000" font-family="sans-serif" font-size="13" lengthAdjust="spacing" textLength="196.2188" x="595.5142" y="232.0591">SELECT task WHERE id = {id}</text></g><g class="message" data-participant-1="PTDB" data-participant-2="TS"><polygon fill="#181818" points="599.5142,262.2578,589.5142,266.2578,599.5142,270.2578,595.5142,266.2578" style="stroke:#181818;stroke-width:1;"/><line style="stroke:#181818;stroke-width:1;" x1="593.5142" x2="826.7886" y1="266.2578" y2="266.2578"/><text fill="#000000" font-family="sans-serif" font-size="13" lengthAdjust="spacing" textLength="105.479" x="605.5142" y="261.1919">&#1044;&#1072;&#1085;&#1085;&#1099;&#1077; &#1079;&#1072;&#1076;&#1072;&#1095;&#1080;</text></g><g class="message" data-participant-1="TS" data-participant-2="PTDB"><polygon fill="#181818" points="815.7886,291.3906,825.7886,295.3906,815.7886,299.3906,819.7886,295.3906" style="stroke:#181818;stroke-width:1;"/><line style="stroke:#181818;stroke-width:1;" x1="588.5142" x2="821.7886" y1="295.3906" y2="295.3906"/><text fill="#000000" font-family="sans-serif" font-size="13" lengthAdjust="spacing" textLength="215.2744" x="595.5142" y="290.3247">UPDATE task SET status = 'done'</text></g><g class="message" data-participant-1="PTDB" data-participant-2="TS"><polygon fill="#181818" points="599.5142,320.5234,589.5142,324.5234,599.5142,328.5234,595.5142,324.5234" style="stroke:#181818;stroke-width:1;"/><line style="stroke:#181818;stroke-width:1;" x1="593.5142" x2="826.7886" y1="324.5234" y2="324.5234"/><text fill="#000000" font-family="sans-serif" font-size="13" lengthAdjust="spacing" textLength="116.0542" x="605.5142" y="319.4575">&#1057;&#1090;&#1072;&#1090;&#1091;&#1089; &#1086;&#1073;&#1085;&#1086;&#1074;&#1083;&#1077;&#1085;</text></g><g class="message" data-participant-1="TS" data-participant-2="MQ"><polygon fill="#181818" points="973.166,349.6563,983.166,353.6563,973.166,357.6563,977.166,353.6563" style="stroke:#181818;stroke-width:1;"/><line style="stroke:#181818;stroke-width:1;" x1="588.5142" x2="979.166" y1="353.6563" y2="353.6563"/><text fill="#000000" font-family="sans-serif" font-size="13" lengthAdjust="spacing" textLength="230.6294" x="595.5142" y="348.5903">Publish task_status_changed_event</text></g><g class="message" data-participant-1="TS" data-participant-2="API"><polygon fill="#181818" points="420.3711,378.7891,410.3711,382.7891,420.3711,386.7891,416.3711,382.7891" style="stroke:#181818;stroke-width:1;"/><line style="stroke:#181818;stroke-width:1;" x1="414.3711" x2="587.5142" y1="382.7891" y2="382.7891"/><text fill="#000000" font-family="sans-serif" font-size="13" lengthAdjust="spacing" textLength="155.1431" x="426.3711" y="377.7231">&#1057;&#1090;&#1072;&#1090;&#1091;&#1089; &#1086;&#1073;&#1085;&#1086;&#1074;&#1083;&#1077;&#1085; (200)</text></g><g class="message" data-participant-1="API" data-participant-2="WC"><polygon fill="#181818" points="227.1045,407.9219,217.1045,411.9219,227.1045,415.9219,223.1045,411.9219" style="stroke:#181818;stroke-width:1;"/><line style="stroke:#181818;stroke-width:1;" x1="221.1045" x2="408.3711" y1="411.9219" y2="411.9219"/><text fill="#000000" font-family="sans-serif" font-size="13" lengthAdjust="spacing" textLength="85.3315" x="233.1045" y="406.856">HTTP 200 OK</text></g><g class="message" data-participant-1="WC" data-participant-2="User"><polygon fill="#181818" points="34.9551,437.0547,24.9551,441.0547,34.9551,445.0547,30.9551,441.0547" style="stroke:#181818;stroke-width:1;"/><line style="stroke:#181818;stroke-width:1;" x1="28.9551" x2="215.1045" y1="441.0547" y2="441.0547"/><text fill="#000000" font-family="sans-serif" font-size="13" lengthAdjust="spacing" textLength="168.1494" x="40.9551" y="435.9888">&#1057;&#1090;&#1072;&#1090;&#1091;&#1089; &#1079;&#1072;&#1076;&#1072;&#1095;&#1080; &#1086;&#1073;&#1085;&#1086;&#1074;&#1083;&#1077;&#1085;</text></g><g class="message" data-participant-1="MQ" data-participant-2="NS"><polygon fill="#181818" points="1242.1729,466.1875,1252.1729,470.1875,1242.1729,474.1875,1246.1729,470.1875" style="stroke:#181818;stroke-width:1;"/><line style="stroke:#181818;stroke-width:1;" x1="985.166" x2="1248.1729" y1="470.1875" y2="470.1875"/><text fill="#000000" font-family="sans-serif" font-size="13" lengthAdjust="spacing" textLength="245.0068" x="992.166" y="465.1216">Consume task_status_changed_event</text></g><g class="message" data-participant-1="NS" data-participant-2="PS"><polygon fill="#181818" points="1474.103,495.3203,1484.103,499.3203,1474.103,503.3203,1478.103,499.3203" style="stroke:#181818;stroke-width:1;"/><line style="stroke:#181818;stroke-width:1;" x1="1254.1729" x2="1480.103" y1="499.3203" y2="499.3203"/><text fill="#000000" font-family="sans-serif" font-size="13" lengthAdjust="spacing" textLength="207.9302" x="1261.1729" y="494.2544">&#1055;&#1086;&#1083;&#1091;&#1095;&#1080;&#1090;&#1100; &#1091;&#1095;&#1072;&#1089;&#1090;&#1085;&#1080;&#1082;&#1086;&#1074; &#1087;&#1088;&#1086;&#1077;&#1082;&#1090;&#1072;</text></g><g class="message" data-participant-1="PS" data-participant-2="NS"><polygon fill="#181818" points="1265.1729,524.4531,1255.1729,528.4531,1265.1729,532.4531,1261.1729,528.4531" style="stroke:#181818;stroke-width:1;"/><line style="stroke:#181818;stroke-width:1;" x1="1259.1729" x2="1485.103" y1="528.4531" y2="528.4531"/><text fill="#000000" font-family="sans-serif" font-size="13" lengthAdjust="spacing" textLength="131.5869" x="1271.1729" y="523.3872">&#1057;&#1087;&#1080;&#1089;&#1086;&#1082; &#1091;&#1095;&#1072;&#1089;&#1090;&#1085;&#1080;&#1082;&#1086;&#1074;</text></g><g class="message" data-participant-1="NS" data-participant-2="NS"><line style="stroke:#181818;stroke-width:1;" x1="1254.1729" x2="1296.1729" y1="557.5859" y2="557.5859"/><line style="stroke:#181818;stroke-width:1;" x1="1296.1729" x2="1296.1729" y1="557.5859" y2="570.5859"/><line style="stroke:#181818;stroke-width:1;" x1="1255.1729" x2="1296.1729" y1="570.5859" y2="570.5859"/><polygon fill="#181818" points="1265.1729,566.5859,1255.1729,570.5859,1265.1729,574.5859,1261.1729,570.5859" style="stroke:#181818;stroke-width:1;"/><text fill="#000000" font-family="sans-serif" font-size="13" lengthAdjust="spacing" textLength="169.1777" x="1261.1729" y="552.52">&#1054;&#1090;&#1087;&#1088;&#1072;&#1074;&#1080;&#1090;&#1100; &#1091;&#1074;&#1077;&#1076;&#1086;&#1084;&#1083;&#1077;&#1085;&#1080;&#1103;</text></g><!--SRC=[VLF1RjD04BtxAqQv50x85ST881N7eWWI7BnHZj76Njg5O0VlkWWX9D8UUYWI5yv5_GEt8Y9AIVeBupzYrh55bgBUPdVUl9dtPbTBFH60vtY9ArpZ5LxZdA85pg6SbSTObCVbIJd30l0N5lYJBavnuV18fncq1afaBU0AJE1CUQPb9ASyqT0QYZ5u4oaING66dftU2vx1Kwx51_wnojFP1Z2kta8eiYCPYGh1GYVcce-v4j0AilIDYBHReJhrTGKBMEU9ypuNEQ6wGYb-8A1lZbMssxUxz58jNyk8QvacLhTUQ0FhXXOc21sZ6nuy9ddjRHCNvDfNoq3Rlg5dYaXp6u810vTFfQj9Yd8_oVYpgpJNkNACHmHZOOswZM2X0HZ9RGZz5xx7m81WkE-_ya76y0WCt368XWg_qo0hN9Ldj6DhgcssGT3PO_w6BVGPR1eItqwS9cB7PhpOrhcsdrBDsksJY7myaUgm8Xrj24VH8KyEH3mIH_HIQcpbovsaSE_XxkxznY1Z_ZvZ0T0bl7nUksjMyo_DbjhRWtRxfgn7WhmqKVaxSSUWlOrLHlmFehWc-jDcwoOigjsRVxGq7G1loYyKp75fnd62i6c55tX3XJDABlzRMhUgiEUKC4J5toTsGk6SDAtnT_Drosz_0000]--></g></svg>