<?xml version="1.0" encoding="us-ascii" standalone="no"?><svg xmlns="http://www.w3.org/2000/svg" xmlns:xlink="http://www.w3.org/1999/xlink" contentStyleType="text/css" height="793px" preserveAspectRatio="none" style="width:1516px;height:793px;background:#FFFFFF;" version="1.1" viewBox="0 0 1516 793" width="1516px" zoomAndPan="magnify"><defs/><g><text fill="#000000" font-family="sans-serif" font-size="14" font-weight="bold" lengthAdjust="spacing" textLength="195" x="661.75" y="28.5352">&#1056;&#1077;&#1075;&#1080;&#1089;&#1090;&#1088;&#1072;&#1094;&#1080;&#1103; &#1087;&#1086;&#1083;&#1100;&#1079;&#1086;&#1074;&#1072;&#1090;&#1077;&#1083;&#1103;</text><rect fill="none" height="325.3711" style="stroke:#000000;stroke-width:1.5;" width="1499.5" x="10" y="370.4609"/><line style="stroke:#181818;stroke-width:0.5;stroke-dasharray:5.0,5.0;" x1="70" x2="70" y1="118.9766" y2="712.832"/><line style="stroke:#181818;stroke-width:0.5;stroke-dasharray:5.0,5.0;" x1="402" x2="402" y1="118.9766" y2="712.832"/><line style="stroke:#181818;stroke-width:0.5;stroke-dasharray:5.0,5.0;" x1="584" x2="584" y1="118.9766" y2="712.832"/><line style="stroke:#181818;stroke-width:0.5;stroke-dasharray:5.0,5.0;" x1="866.5" x2="866.5" y1="118.9766" y2="712.832"/><line style="stroke:#181818;stroke-width:0.5;stroke-dasharray:5.0,5.0;" x1="1145" x2="1145" y1="118.9766" y2="712.832"/><line style="stroke:#181818;stroke-width:0.5;stroke-dasharray:5.0,5.0;" x1="1447.5" x2="1447.5" y1="118.9766" y2="712.832"/><text fill="#000000" font-family="sans-serif" font-size="14" lengthAdjust="spacing" textLength="95" x="20" y="116.0234">&#1055;&#1086;&#1083;&#1100;&#1079;&#1086;&#1074;&#1072;&#1090;&#1077;&#1083;&#1100;</text><ellipse cx="70.5" cy="50.9883" fill="#E2E2F0" rx="8" ry="8" style="stroke:#181818;stroke-width:0.5;"/><path d="M70.5,58.9883 L70.5,85.9883 M57.5,66.9883 L83.5,66.9883 M70.5,85.9883 L57.5,100.9883 M70.5,85.9883 L83.5,100.9883 " fill="none" style="stroke:#181818;stroke-width:0.5;"/><text fill="#000000" font-family="sans-serif" font-size="14" lengthAdjust="spacing" textLength="95" x="20" y="725.3672">&#1055;&#1086;&#1083;&#1100;&#1079;&#1086;&#1074;&#1072;&#1090;&#1077;&#1083;&#1100;</text><ellipse cx="70.5" cy="736.8203" fill="#E2E2F0" rx="8" ry="8" style="stroke:#181818;stroke-width:0.5;"/><path d="M70.5,744.8203 L70.5,771.8203 M57.5,752.8203 L83.5,752.8203 M70.5,771.8203 L57.5,786.8203 M70.5,771.8203 L83.5,786.8203 " fill="none" style="stroke:#181818;stroke-width:0.5;"/><rect fill="#E2E2F0" height="30.4883" rx="2.5" ry="2.5" style="stroke:#181818;stroke-width:0.5;" width="87" x="359" y="87.4883"/><text fill="#000000" font-family="sans-serif" font-size="14" lengthAdjust="spacing" textLength="73" x="366" y="108.0234">Web Client</text><rect fill="#E2E2F0" height="30.4883" rx="2.5" ry="2.5" style="stroke:#181818;stroke-width:0.5;" width="87" x="359" y="711.832"/><text fill="#000000" font-family="sans-serif" font-size="14" lengthAdjust="spacing" textLength="73" x="366" y="732.3672">Web Client</text><rect fill="#E2E2F0" height="30.4883" rx="2.5" ry="2.5" style="stroke:#181818;stroke-width:0.5;" width="97" x="536" y="87.4883"/><text fill="#000000" font-family="sans-serif" font-size="14" lengthAdjust="spacing" textLength="83" x="543" y="108.0234">API Gateway</text><rect fill="#E2E2F0" height="30.4883" rx="2.5" ry="2.5" style="stroke:#181818;stroke-width:0.5;" width="97" x="536" y="711.832"/><text fill="#000000" font-family="sans-serif" font-size="14" lengthAdjust="spacing" textLength="83" x="543" y="732.3672">API Gateway</text><rect fill="#E2E2F0" height="30.4883" rx="2.5" ry="2.5" style="stroke:#181818;stroke-width:0.5;" width="176" x="778.5" y="87.4883"/><text fill="#000000" font-family="sans-serif" font-size="14" lengthAdjust="spacing" textLength="162" x="785.5" y="108.0234">Authentification Service</text><rect fill="#E2E2F0" height="30.4883" rx="2.5" ry="2.5" style="stroke:#181818;stroke-width:0.5;" width="176" x="778.5" y="711.832"/><text fill="#000000" font-family="sans-serif" font-size="14" lengthAdjust="spacing" textLength="162" x="785.5" y="732.3672">Authentification Service</text><rect fill="#E2E2F0" height="30.4883" rx="2.5" ry="2.5" style="stroke:#181818;stroke-width:0.5;" width="97" x="1097" y="87.4883"/><text fill="#000000" font-family="sans-serif" font-size="14" lengthAdjust="spacing" textLength="83" x="1104" y="108.0234">User Service</text><rect fill="#E2E2F0" height="30.4883" rx="2.5" ry="2.5" style="stroke:#181818;stroke-width:0.5;" width="97" x="1097" y="711.832"/><text fill="#000000" font-family="sans-serif" font-size="14" lengthAdjust="spacing" textLength="83" x="1104" y="732.3672">User Service</text><text fill="#000000" font-family="sans-serif" font-size="14" lengthAdjust="spacing" textLength="98" x="1395.5" y="116.0234">User Database</text><path d="M1429.5,66.4883 C1429.5,56.4883 1447.5,56.4883 1447.5,56.4883 C1447.5,56.4883 1465.5,56.4883 1465.5,66.4883 L1465.5,92.4883 C1465.5,102.4883 1447.5,102.4883 1447.5,102.4883 C1447.5,102.4883 1429.5,102.4883 1429.5,92.4883 L1429.5,66.4883 " fill="#E2E2F0" style="stroke:#181818;stroke-width:1.5;"/><path d="M1429.5,66.4883 C1429.5,76.4883 1447.5,76.4883 1447.5,76.4883 C1447.5,76.4883 1465.5,76.4883 1465.5,66.4883 " fill="none" style="stroke:#181818;stroke-width:1.5;"/><text fill="#000000" font-family="sans-serif" font-size="14" lengthAdjust="spacing" textLength="98" x="1395.5" y="725.3672">User Database</text><path d="M1429.5,738.3203 C1429.5,728.3203 1447.5,728.3203 1447.5,728.3203 C1447.5,728.3203 1465.5,728.3203 1465.5,738.3203 L1465.5,764.3203 C1465.5,774.3203 1447.5,774.3203 1447.5,774.3203 C1447.5,774.3203 1429.5,774.3203 1429.5,764.3203 L1429.5,738.3203 " fill="#E2E2F0" style="stroke:#181818;stroke-width:1.5;"/><path d="M1429.5,738.3203 C1429.5,748.3203 1447.5,748.3203 1447.5,748.3203 C1447.5,748.3203 1465.5,748.3203 1465.5,738.3203 " fill="none" style="stroke:#181818;stroke-width:1.5;"/><polygon fill="#181818" points="390.5,146.2871,400.5,150.2871,390.5,154.2871,394.5,150.2871" style="stroke:#181818;stroke-width:1.0;"/><line style="stroke:#181818;stroke-width:1.0;" x1="70.5" x2="396.5" y1="150.2871" y2="150.2871"/><text fill="#000000" font-family="sans-serif" font-size="13" lengthAdjust="spacing" textLength="308" x="77.5" y="145.5449">&#1042;&#1074;&#1077;&#1089;&#1090;&#1080; &#1076;&#1072;&#1085;&#1085;&#1099;&#1077; &#1076;&#1083;&#1103; &#1088;&#1077;&#1075;&#1080;&#1089;&#1090;&#1088;&#1072;&#1094;&#1080;&#1080; (email, &#1087;&#1072;&#1088;&#1086;&#1083;&#1100;)</text><polygon fill="#181818" points="572.5,175.5977,582.5,179.5977,572.5,183.5977,576.5,179.5977" style="stroke:#181818;stroke-width:1.0;"/><line style="stroke:#181818;stroke-width:1.0;" x1="402.5" x2="578.5" y1="179.5977" y2="179.5977"/><text fill="#000000" font-family="sans-serif" font-size="13" lengthAdjust="spacing" textLength="139" x="409.5" y="174.8555">POST /api/v1/register</text><polygon fill="#181818" points="854.5,204.9082,864.5,208.9082,854.5,212.9082,858.5,208.9082" style="stroke:#181818;stroke-width:1.0;"/><line style="stroke:#181818;stroke-width:1.0;" x1="584.5" x2="860.5" y1="208.9082" y2="208.9082"/><text fill="#000000" font-family="sans-serif" font-size="13" lengthAdjust="spacing" textLength="191" x="591.5" y="204.166">POST /auth/check-availability</text><polygon fill="#181818" points="1133.5,234.2188,1143.5,238.2188,1133.5,242.2188,1137.5,238.2188" style="stroke:#181818;stroke-width:1.0;"/><line style="stroke:#181818;stroke-width:1.0;" x1="866.5" x2="1139.5" y1="238.2188" y2="238.2188"/><text fill="#000000" font-family="sans-serif" font-size="13" lengthAdjust="spacing" textLength="255" x="873.5" y="233.4766">GET /users/check-unique?email={email}</text><polygon fill="#181818" points="1435.5,263.5293,1445.5,267.5293,1435.5,271.5293,1439.5,267.5293" style="stroke:#181818;stroke-width:1.0;"/><line style="stroke:#181818;stroke-width:1.0;" x1="1145.5" x2="1441.5" y1="267.5293" y2="267.5293"/><text fill="#000000" font-family="sans-serif" font-size="13" lengthAdjust="spacing" textLength="278" x="1152.5" y="262.7871">SELECT * FROM users WHERE email = {email}</text><polygon fill="#181818" points="1156.5,292.8398,1146.5,296.8398,1156.5,300.8398,1152.5,296.8398" style="stroke:#181818;stroke-width:1.0;"/><line style="stroke:#181818;stroke-width:1.0;stroke-dasharray:2.0,2.0;" x1="1150.5" x2="1446.5" y1="296.8398" y2="296.8398"/><text fill="#000000" font-family="sans-serif" font-size="13" lengthAdjust="spacing" textLength="126" x="1162.5" y="292.0977">&#1056;&#1077;&#1079;&#1091;&#1083;&#1100;&#1090;&#1072;&#1090; &#1087;&#1088;&#1086;&#1074;&#1077;&#1088;&#1082;&#1080;</text><polygon fill="#181818" points="877.5,322.1504,867.5,326.1504,877.5,330.1504,873.5,326.1504" style="stroke:#181818;stroke-width:1.0;"/><line style="stroke:#181818;stroke-width:1.0;stroke-dasharray:2.0,2.0;" x1="871.5" x2="1144.5" y1="326.1504" y2="326.1504"/><text fill="#000000" font-family="sans-serif" font-size="13" lengthAdjust="spacing" textLength="126" x="883.5" y="321.4082">&#1056;&#1077;&#1079;&#1091;&#1083;&#1100;&#1090;&#1072;&#1090; &#1087;&#1088;&#1086;&#1074;&#1077;&#1088;&#1082;&#1080;</text><polygon fill="#181818" points="595.5,351.4609,585.5,355.4609,595.5,359.4609,591.5,355.4609" style="stroke:#181818;stroke-width:1.0;"/><line style="stroke:#181818;stroke-width:1.0;stroke-dasharray:2.0,2.0;" x1="589.5" x2="865.5" y1="355.4609" y2="355.4609"/><text fill="#000000" font-family="sans-serif" font-size="13" lengthAdjust="spacing" textLength="126" x="601.5" y="350.7188">&#1056;&#1077;&#1079;&#1091;&#1083;&#1100;&#1090;&#1072;&#1090; &#1087;&#1088;&#1086;&#1074;&#1077;&#1088;&#1082;&#1080;</text><path d="M10,370.4609 L72,370.4609 L72,377.7715 L62,387.7715 L10,387.7715 L10,370.4609 " fill="#EEEEEE" style="stroke:#000000;stroke-width:1.5;"/><rect fill="none" height="325.3711" style="stroke:#000000;stroke-width:1.5;" width="1499.5" x="10" y="370.4609"/><text fill="#000000" font-family="sans-serif" font-size="13" font-weight="bold" lengthAdjust="spacing" textLength="17" x="25" y="384.0293">alt</text><text fill="#000000" font-family="sans-serif" font-size="11" font-weight="bold" lengthAdjust="spacing" textLength="222" x="87" y="383.0957">[&#1059;&#1089;&#1087;&#1077;&#1096;&#1085;&#1072;&#1103; &#1087;&#1088;&#1086;&#1074;&#1077;&#1088;&#1082;&#1072; (email &#1091;&#1085;&#1080;&#1082;&#1072;&#1083;&#1077;&#1085;)]</text><polygon fill="#181818" points="854.5,405.082,864.5,409.082,854.5,413.082,858.5,409.082" style="stroke:#181818;stroke-width:1.0;"/><line style="stroke:#181818;stroke-width:1.0;" x1="584.5" x2="860.5" y1="409.082" y2="409.082"/><text fill="#000000" font-family="sans-serif" font-size="13" lengthAdjust="spacing" textLength="192" x="591.5" y="404.3398">&#1057;&#1086;&#1079;&#1076;&#1072;&#1090;&#1100; &#1085;&#1086;&#1074;&#1086;&#1075;&#1086; &#1087;&#1086;&#1083;&#1100;&#1079;&#1086;&#1074;&#1072;&#1090;&#1077;&#1083;&#1103;</text><polygon fill="#181818" points="1133.5,434.3926,1143.5,438.3926,1133.5,442.3926,1137.5,438.3926" style="stroke:#181818;stroke-width:1.0;"/><line style="stroke:#181818;stroke-width:1.0;" x1="866.5" x2="1139.5" y1="438.3926" y2="438.3926"/><text fill="#000000" font-family="sans-serif" font-size="13" lengthAdjust="spacing" textLength="212" x="873.5" y="433.6504">&#1057;&#1086;&#1093;&#1088;&#1072;&#1085;&#1080;&#1090;&#1100; &#1076;&#1072;&#1085;&#1085;&#1099;&#1077; &#1087;&#1086;&#1083;&#1100;&#1079;&#1086;&#1074;&#1072;&#1090;&#1077;&#1083;&#1103;</text><polygon fill="#181818" points="1435.5,463.7031,1445.5,467.7031,1435.5,471.7031,1439.5,467.7031" style="stroke:#181818;stroke-width:1.0;"/><line style="stroke:#181818;stroke-width:1.0;" x1="1145.5" x2="1441.5" y1="467.7031" y2="467.7031"/><text fill="#000000" font-family="sans-serif" font-size="13" lengthAdjust="spacing" textLength="209" x="1152.5" y="462.9609">&#1057;&#1086;&#1093;&#1088;&#1072;&#1085;&#1080;&#1090;&#1100; &#1085;&#1086;&#1074;&#1086;&#1075;&#1086; &#1087;&#1086;&#1083;&#1100;&#1079;&#1086;&#1074;&#1072;&#1090;&#1077;&#1083;&#1103;</text><polygon fill="#181818" points="1156.5,493.0137,1146.5,497.0137,1156.5,501.0137,1152.5,497.0137" style="stroke:#181818;stroke-width:1.0;"/><line style="stroke:#181818;stroke-width:1.0;stroke-dasharray:2.0,2.0;" x1="1150.5" x2="1446.5" y1="497.0137" y2="497.0137"/><text fill="#000000" font-family="sans-serif" font-size="13" lengthAdjust="spacing" textLength="183" x="1162.5" y="492.2715">&#1055;&#1086;&#1076;&#1090;&#1074;&#1077;&#1088;&#1078;&#1076;&#1077;&#1085;&#1080;&#1077; &#1089;&#1086;&#1093;&#1088;&#1072;&#1085;&#1077;&#1085;&#1080;&#1103;</text><polygon fill="#181818" points="877.5,522.3242,867.5,526.3242,877.5,530.3242,873.5,526.3242" style="stroke:#181818;stroke-width:1.0;"/><line style="stroke:#181818;stroke-width:1.0;stroke-dasharray:2.0,2.0;" x1="871.5" x2="1144.5" y1="526.3242" y2="526.3242"/><text fill="#000000" font-family="sans-serif" font-size="13" lengthAdjust="spacing" textLength="183" x="883.5" y="521.582">&#1055;&#1086;&#1076;&#1090;&#1074;&#1077;&#1088;&#1078;&#1076;&#1077;&#1085;&#1080;&#1077; &#1089;&#1086;&#1093;&#1088;&#1072;&#1085;&#1077;&#1085;&#1080;&#1103;</text><polygon fill="#181818" points="595.5,551.6348,585.5,555.6348,595.5,559.6348,591.5,555.6348" style="stroke:#181818;stroke-width:1.0;"/><line style="stroke:#181818;stroke-width:1.0;stroke-dasharray:2.0,2.0;" x1="589.5" x2="865.5" y1="555.6348" y2="555.6348"/><text fill="#000000" font-family="sans-serif" font-size="13" lengthAdjust="spacing" textLength="258" x="601.5" y="550.8926">&#1055;&#1086;&#1076;&#1090;&#1074;&#1077;&#1088;&#1078;&#1076;&#1077;&#1085;&#1080;&#1077; &#1089;&#1086;&#1079;&#1076;&#1072;&#1085;&#1080;&#1103; &#1087;&#1086;&#1083;&#1100;&#1079;&#1086;&#1074;&#1072;&#1090;&#1077;&#1083;&#1103;</text><polygon fill="#181818" points="413.5,580.9453,403.5,584.9453,413.5,588.9453,409.5,584.9453" style="stroke:#181818;stroke-width:1.0;"/><line style="stroke:#181818;stroke-width:1.0;stroke-dasharray:2.0,2.0;" x1="407.5" x2="583.5" y1="584.9453" y2="584.9453"/><text fill="#000000" font-family="sans-serif" font-size="13" lengthAdjust="spacing" textLength="148" x="419.5" y="580.2031">&#1059;&#1089;&#1087;&#1077;&#1096;&#1085;&#1072;&#1103; &#1088;&#1077;&#1075;&#1080;&#1089;&#1090;&#1088;&#1072;&#1094;&#1080;&#1103;</text><polygon fill="#181818" points="81.5,610.2559,71.5,614.2559,81.5,618.2559,77.5,614.2559" style="stroke:#181818;stroke-width:1.0;"/><line style="stroke:#181818;stroke-width:1.0;stroke-dasharray:2.0,2.0;" x1="75.5" x2="401.5" y1="614.2559" y2="614.2559"/><text fill="#000000" font-family="sans-serif" font-size="13" lengthAdjust="spacing" textLength="248" x="87.5" y="609.5137">&#1057;&#1086;&#1086;&#1073;&#1097;&#1077;&#1085;&#1080;&#1077; &#1086;&#1073; &#1091;&#1089;&#1087;&#1077;&#1096;&#1085;&#1086;&#1081; &#1088;&#1077;&#1075;&#1080;&#1089;&#1090;&#1088;&#1072;&#1094;&#1080;&#1080;</text><line style="stroke:#000000;stroke-width:1.0;stroke-dasharray:2.0,2.0;" x1="10" x2="1509.5" y1="623.2559" y2="623.2559"/><text fill="#000000" font-family="sans-serif" font-size="11" font-weight="bold" lengthAdjust="spacing" textLength="133" x="15" y="633.8906">[email &#1091;&#1078;&#1077; &#1089;&#1091;&#1097;&#1077;&#1089;&#1090;&#1074;&#1091;&#1077;&#1090;]</text><polygon fill="#181818" points="413.5,654.5215,403.5,658.5215,413.5,662.5215,409.5,658.5215" style="stroke:#181818;stroke-width:1.0;"/><line style="stroke:#181818;stroke-width:1.0;stroke-dasharray:2.0,2.0;" x1="407.5" x2="583.5" y1="658.5215" y2="658.5215"/><text fill="#000000" font-family="sans-serif" font-size="13" lengthAdjust="spacing" textLength="158" x="419.5" y="653.7793">&#1054;&#1096;&#1080;&#1073;&#1082;&#1072;: email &#1091;&#1078;&#1077; &#1079;&#1072;&#1085;&#1103;&#1090;</text><polygon fill="#181818" points="81.5,683.832,71.5,687.832,81.5,691.832,77.5,687.832" style="stroke:#181818;stroke-width:1.0;"/><line style="stroke:#181818;stroke-width:1.0;stroke-dasharray:2.0,2.0;" x1="75.5" x2="401.5" y1="687.832" y2="687.832"/><text fill="#000000" font-family="sans-serif" font-size="13" lengthAdjust="spacing" textLength="147" x="87.5" y="683.0898">&#1057;&#1086;&#1086;&#1073;&#1097;&#1077;&#1085;&#1080;&#1077; &#1086;&#1073; &#1086;&#1096;&#1080;&#1073;&#1082;&#1077;</text><!--SRC=[dLHTRn9157sVNt7J9sian5UIQWInccZQT4ju7kXe9o95632DCMan6Xj9IFm1ViG_G6kte0Jy2tV-aMTcbu-bb13tPNVkd7lctdFkhD6ceeY_SyY_U61FRTkUSCz-n7UN-2-FUMWxtCVx0k4sO4FR5KAMpL6TDlZRKa1dWsI32WrL5pLPDxgiQx9gQAEeIfIhQ5Kr7b3C9RSVx3wXRMdK6tdizx5U03JD8PBrSrsMHXzLAL3rbYwh28tD9DmLa80K0d4WZIp9Xeft7yRBQ3ihX8-cxg6s3F4Nz1GwJNX0VCaz7l78VkRGBI03GQfhiW5wIxsIkdB7oTT3s2kqAOevnukUChIx4-nJMjPqkdKtNLSlTCD0AjU-Gw2FAGJVwVAXAhzCoHOuPKbNj3aM3kEmXI13sta0coYx4IERLVswgUxx8hRU-jSxKGWyFfkX8Fyqdzkds_HeR-SP-KGgFixlvSb3QOkcELbAnOVu0UdRzwuLo06ZqPtlpIbqmdzuu8-OrhzEGjJ5H9HrCeIi6EAVzXJIXlOJ_EZvCKt0Uh411AuH3464X-0URGh2av2PVo2nxxo5Wnq2tl6COUhuvkdtB7CEE1BxmGs0EoyYIapBAgAPCSjergvdtYjtAI-n6mboXLf2BqH846vsX0_ELJ4JvJy85hnSpH0f7cMlRclcsEHEBfg_x0x6oUx6EKqmuh7JOpwtPzDIt193CaSuvjytN6eXL0L_ZUbWNVbMa7mM_o4k40nj-th1Ny4yu7CtXfbaFZg62BORPwrLBkIVq8MegNhm3m00]--></g></svg>

